<?xml version="1.0" encoding="utf-8"?>
<!-- Generator: Adobe Illustrator 27.9.0, SVG Export Plug-In . SVG Version: 6.00 Build 0)  -->
<svg version="1.1" id="Capa_1" xmlns="http://www.w3.org/2000/svg" xmlns:xlink="http://www.w3.org/1999/xlink" x="0px" y="0px"
	 viewBox="0 0 78 63" style="enable-background:new 0 0 78 63;" xml:space="preserve">
<style type="text/css">
	.st0{fill:#033523;}
	.st1{fill:#429D6A;}
	.st2{fill:#FFFFFF;}
</style>
<g>
	<path class="st0" d="M-0.04,18.94c0-1.25,0.88-2.77,1.96-3.4L37,0.57c1.07-0.62,2.84-0.62,3.91,0L76,15.54
		c1.08,0.62,1.96,2.15,1.96,3.4v26.38c0,1.25-0.88,2.78-1.96,3.4L40.92,62.63c-1.08,0.63-2.84,0.63-3.91,0L1.92,48.72
		c-1.08-0.62-1.96-2.15-1.96-3.4V18.94z"/>
	<path class="st1" d="M43.54,7.27c0,0-0.05-1.06-1.76-1.08c0,0-1.24-0.16-2.14,0.91c0,0-1.2,1.33-1.53,2.12l-0.3,0.43l-0.33,0.42
		l-0.24,0.28l-0.35,0.38l-0.52,0.49c0,0-2.28,1.39-4.55,1.47c0,0,0.72,1.58,5.52,2.77c0,0,1.25,0.21,1.18,0.78
		c0,0,0.19,0.74-0.84,0.74h3.83c0,0-1.02-0.6-2.01-0.56c0,0-0.32-0.44-0.33-0.93l0.12-0.05c0,0,0.19,0.66,0.29,0.8l2.37,0.35
		c0,0-1.33-0.81-2.06-0.69c0,0-0.27-0.24-0.13-0.72c0,0,2.44-0.18,3.96-2.93c0,0,1.01-2.5,0.09-3.98c0,0,0.87-0.02,1.16-0.62
		C44.96,7.66,44.49,7.22,43.54,7.27z"/>
	<g>
		<path class="st2" d="M38.96,62.22c-0.58,0-1.13-0.13-1.52-0.35l-0.06-0.03L2.3,47.92L2.26,47.9c-0.77-0.51-1.43-1.69-1.43-2.58
			V18.94c0-0.9,0.66-2.09,1.44-2.58l0.07-0.04L37.4,1.36l0.05-0.03c0.38-0.22,0.93-0.35,1.51-0.35c0.58,0,1.14,0.13,1.52,0.35
			l0.04,0.03L75.6,16.33l0.03,0.02c0.78,0.5,1.44,1.68,1.44,2.58v26.38c0,0.89-0.65,2.07-1.42,2.58l-0.04,0.02l-0.04,0.02
			L40.53,61.84l-0.06,0.03C40.09,62.09,39.54,62.22,38.96,62.22z M2.74,47.09l35.06,13.9l0.12,0.07c0.23,0.13,0.64,0.22,1.05,0.22
			c0.41,0,0.81-0.09,1.04-0.22l0.15-0.08l35.02-13.88c0.49-0.35,0.96-1.21,0.96-1.77V18.94c0-0.57-0.48-1.43-0.98-1.77L40.11,2.2
			l-0.09-0.05c-0.24-0.14-0.64-0.22-1.05-0.22c-0.41,0-0.81,0.08-1.05,0.22l-0.12,0.07L2.75,17.16c-0.5,0.34-0.98,1.21-0.98,1.77
			v26.38C1.78,45.88,2.25,46.74,2.74,47.09z"/>
		<g>
			<g>
				<g>
					<path class="st2" d="M19.95,40.16H9.16v-0.88h0.69c2.2,0,2.25-0.32,2.25-1.34V22.85c0-1.03-0.06-1.35-2.25-1.35H9.16v-0.89
						h10.79c5.08,0,9.16,4.46,9.16,9.93C29.1,35.92,24.97,40.16,19.95,40.16z M24.66,24.2c-1.66-2.2-3.88-2.69-5.48-2.69h-3.23
						c-1.34,0-1.4,0.2-1.4,1.14v15.47c0,0.94,0.06,1.15,1.4,1.15h3.23c2.22,0,4.05-0.92,5.22-2.23c1.34-1.54,1.85-3.6,1.85-6.49
						C26.25,28.37,25.94,25.89,24.66,24.2z"/>
					<path class="st2" d="M19.95,40.22H9.09V39.2h0.75c2.19,0,2.19-0.29,2.19-1.28V22.85c0-0.98,0-1.28-2.19-1.28H9.09v-1.02h10.85
						c5.09,0,9.22,4.48,9.22,9.99C29.17,35.88,25.03,40.22,19.95,40.22z M9.23,40.09h10.72c5.01,0,9.09-4.28,9.09-9.54
						c0-5.44-4.08-9.86-9.09-9.86H9.23v0.75h0.62c2.21,0,2.32,0.34,2.32,1.41v15.07c0,1.07-0.1,1.41-2.32,1.41H9.23V40.09z
						 M19.18,39.34h-3.23c-1.34,0-1.46-0.2-1.46-1.21V22.65c0-1.01,0.12-1.21,1.46-1.21h3.23c1.59,0,3.84,0.47,5.53,2.72
						c1.07,1.4,1.61,3.55,1.61,6.39c0,3.03-0.57,5.05-1.87,6.54C23.18,38.52,21.25,39.34,19.18,39.34z M15.95,21.58
						c-1.33,0-1.33,0.19-1.33,1.08v15.47c0,0.89,0,1.08,1.33,1.08h3.23c2.04,0,3.92-0.81,5.17-2.21c1.27-1.46,1.84-3.45,1.84-6.45
						c0-2.81-0.53-4.93-1.59-6.31c-1.65-2.2-3.86-2.66-5.42-2.66H15.95z"/>
				</g>
				<g>
					<path class="st2" d="M44.74,40.16H31.7v-0.71c1.91,0,2.05-0.17,2.05-1.34V27.6c0-1.17-0.14-1.35-2.05-1.35v-0.71h12.7
						l0.54,4.83h-0.71c-0.32-3.12-1.06-4.12-4.37-4.12h-2.91c-1,0-1.14,0.09-1.14,1.23v4.72h1.99c2.11,0,2.45-0.57,2.45-2.49h0.71
						v5.69h-0.71c0-1.92-0.34-2.49-2.45-2.49h-1.99v5.29c0,1.14,0.14,1.23,1.14,1.23h3.08c3.65,0,4.34-1.37,4.82-4.83h0.72
						L44.74,40.16z"/>
					<path class="st2" d="M44.8,40.22H31.63v-0.85h0.07c1.93,0,1.99-0.18,1.99-1.28V27.6c0-1.1-0.06-1.28-1.99-1.28h-0.07v-0.85
						h12.82l0.56,4.97h-0.85l0-0.06c-0.31-3.05-0.97-4.06-4.3-4.06h-2.91c-0.95,0-1.08,0.04-1.08,1.16v4.65h1.93
						c2.07,0,2.39-0.55,2.39-2.42v-0.07h0.85v5.83H40.2v-0.07c0-1.87-0.32-2.42-2.39-2.42h-1.93v5.22c0,1.12,0.12,1.16,1.08,1.16
						h3.08c3.7,0,4.29-1.45,4.76-4.78l0.01-0.06h0.85L44.8,40.22z M31.77,40.09h12.91l0.81-5.41h-0.58
						c-0.47,3.29-1.11,4.83-4.88,4.83h-3.08c-1.03,0-1.21-0.09-1.21-1.3v-5.36h2.07c2.15,0,2.51,0.59,2.52,2.48h0.58v-5.56h-0.58
						c-0.01,1.9-0.37,2.49-2.52,2.49h-2.07v-4.79c0-1.2,0.18-1.3,1.21-1.3h2.91c3.39,0,4.11,1.08,4.43,4.12h0.58l-0.53-4.7H31.77
						v0.58c1.82,0,2.05,0.17,2.05,1.41v10.5c0,1.24-0.23,1.41-2.05,1.41V40.09z"/>
				</g>
				<g>
					<path class="st2" d="M58.64,40.16H46.91v-0.71c1.91,0,2.05-0.17,2.05-1.34V27.52c0-1.17-0.14-1.34-2.05-1.34v-0.71l3.16,0.09
						l3.51-0.09v0.71c-2.14,0-2.57,0-2.57,1.43v10.61c0,1.14,0.15,1.23,1.14,1.23h1.8c4,0,4.28-2.54,4.51-4.83h0.72L58.64,40.16z"/>
					<path class="st2" d="M58.7,40.22H46.84v-0.85h0.07c1.93,0,1.98-0.18,1.98-1.28V27.52c0-1.1-0.06-1.28-1.98-1.28h-0.07v-0.85
						l3.24,0.09l3.57-0.09v0.85h-0.07c-2.12,0-2.5,0-2.5,1.36v10.61c0,1.12,0.12,1.16,1.07,1.16h1.8c3.97,0,4.22-2.54,4.44-4.77
						l0.01-0.06h0.85L58.7,40.22z M46.98,40.09h11.6l0.53-5.41h-0.58c-0.21,2.17-0.52,4.83-4.57,4.83h-1.8
						c-1.02,0-1.21-0.09-1.21-1.3V27.6c0-1.48,0.5-1.5,2.57-1.5v-0.58l-3.44,0.09l-3.1-0.09v0.58c1.82,0,2.06,0.17,2.06,1.41V38.1
						c0,1.24-0.23,1.41-2.06,1.41V40.09z"/>
				</g>
				<g>
					<path class="st2" d="M63.92,40.07l-3.19,0.08v-0.71c2.02,0,2.16-0.14,2.16-1.37V27.54c0-1.23-0.14-1.37-2.16-1.37v-0.71
						l3.19,0.09l3.19-0.09v0.71c-2.03,0-2.17,0.14-2.17,1.37v10.52c0,1.23,0.14,1.37,2.17,1.37v0.71L63.92,40.07z"/>
					<path class="st2" d="M67.18,40.23l-3.26-0.09l-3.26,0.09v-0.85h0.07c2.02,0,2.1-0.15,2.1-1.31V27.54c0-1.16-0.08-1.31-2.1-1.31
						h-0.07v-0.85l3.27,0.09l3.26-0.09v0.85h-0.07c-2.02,0-2.1,0.15-2.1,1.31v10.52c0,1.16,0.08,1.31,2.1,1.31h0.07V40.23z
						 M63.91,40l3.13,0.08v-0.58c-1.97,0-2.17-0.15-2.17-1.44V27.54c0-1.29,0.2-1.44,2.17-1.44v-0.58l-3.13,0.09l-3.13-0.09v0.58
						c1.96,0,2.17,0.15,2.17,1.44v10.52c0,1.29-0.2,1.44-2.17,1.44v0.58L63.91,40z"/>
				</g>
			</g>
		</g>
		<rect x="7.44" y="42.04" class="st2" width="62.11" height="0.27"/>
		<g>
			<path class="st2" d="M36.48,19.85c-0.69,0-1.25,0.2-1.77,0.67c0.5,0.32,1.01,0.46,1.6,0.46c0.73,0,1.38-0.21,2.01-0.65
				C37.49,19.93,37.01,19.85,36.48,19.85z"/>
			<path class="st2" d="M37.94,19.92c-0.2-0.62-0.48-1.09-0.84-1.45c-0.31-0.31-0.98-0.82-2.01-0.79c0.1,0.57,0.32,0.99,0.69,1.37
				C36.34,19.61,37.23,19.84,37.94,19.92z"/>
			<path class="st2" d="M34.21,19.13c-0.66,0-1.24,0.15-1.83,0.51c0.57,0.38,1.12,0.54,1.78,0.54c0.8,0,1.34-0.24,1.83-0.58
				C35.44,19.3,34.89,19.13,34.21,19.13z"/>
			<path class="st2" d="M34.96,19.19c0.01-1.17-0.26-1.74-0.68-2.18c-0.28-0.29-0.63-0.55-1.37-0.84c-0.08,0.82,0.21,1.62,0.84,2.25
				C34.11,18.78,34.45,19,34.96,19.19z"/>
			<path class="st2" d="M31.66,17.84c-0.59,0-1.02,0.14-1.46,0.41c0.42,0.51,1,0.91,1.89,0.91c0.58,0,1.15-0.13,1.69-0.4
				C33.26,18.31,32.57,17.84,31.66,17.84z"/>
			<path class="st2" d="M32.91,18.07c-0.04-0.95-0.41-1.89-1.01-2.48c-0.32-0.31-0.71-0.63-1.64-0.92c-0.04,0.5,0.04,1.38,0.85,2.2
				C31.66,17.41,32.21,17.75,32.91,18.07z"/>
			<path class="st2" d="M31.49,17.64c-0.26-0.51-0.65-1.07-1.25-1.45c-0.85-0.53-1.6-0.59-2.26-0.49c0.29,0.62,0.59,1.07,1.08,1.45
				C29.72,17.67,30.61,17.73,31.49,17.64z"/>
			<path class="st2" d="M29.75,15.66c-0.03-0.64-0.19-1.42-0.6-1.97c-0.41-0.55-0.91-0.89-1.71-1.11c0,0.84,0.27,1.54,0.83,2.1
				C28.64,15.04,29.14,15.37,29.75,15.66z"/>
			<path class="st2" d="M29.39,11.93c0-0.79-0.35-1.47-1.02-2c-0.19,0.36-0.29,0.75-0.29,1.16c0,0.89,0.48,1.66,1.01,2.28
				C29.32,12.78,29.39,12.42,29.39,11.93z"/>
			<path class="st2" d="M39.35,20.33c0.63,0.44,1.28,0.65,2.01,0.65c0.59,0,1.1-0.14,1.61-0.46c-0.51-0.47-1.07-0.67-1.77-0.67
				C40.67,19.85,40.2,19.93,39.35,20.33z"/>
			<path class="st2" d="M42.6,17.68c-1.03-0.03-1.7,0.48-2.01,0.79c-0.36,0.36-0.64,0.83-0.84,1.45c0.7-0.08,1.59-0.31,2.16-0.87
				C42.28,18.67,42.49,18.26,42.6,17.68z"/>
			<path class="st2" d="M41.69,19.6c0.49,0.34,1.04,0.58,1.83,0.58c0.66,0,1.22-0.16,1.79-0.54c-0.6-0.35-1.17-0.51-1.84-0.51
				C42.78,19.13,42.24,19.3,41.69,19.6z"/>
			<path class="st2" d="M44.77,16.17c-0.75,0.29-1.09,0.55-1.37,0.84c-0.42,0.45-0.69,1.02-0.68,2.18c0.52-0.19,0.86-0.42,1.22-0.77
				C44.56,17.79,44.85,16.98,44.77,16.17z"/>
			<path class="st2" d="M43.9,18.76c0.55,0.27,1.11,0.4,1.7,0.4c0.89,0,1.47-0.4,1.89-0.91c-0.44-0.27-0.87-0.41-1.46-0.41
				C45.11,17.84,44.42,18.31,43.9,18.76z"/>
			<path class="st2" d="M46.57,16.87c0.81-0.82,0.89-1.69,0.85-2.2c-0.93,0.29-1.33,0.61-1.64,0.91c-0.6,0.59-0.98,1.53-1.01,2.48
				C45.47,17.75,46.03,17.41,46.57,16.87z"/>
			<path class="st2" d="M47.45,16.19c-0.6,0.38-1,0.95-1.26,1.45c0.87,0.08,1.76,0.03,2.43-0.5c0.49-0.38,0.79-0.83,1.08-1.45
				C49.04,15.6,48.29,15.66,47.45,16.19z"/>
			<path class="st2" d="M50.23,12.57c-0.8,0.22-1.3,0.56-1.71,1.11c-0.41,0.55-0.56,1.33-0.6,1.97c0.61-0.28,1.12-0.62,1.48-0.99
				C49.96,14.12,50.24,13.41,50.23,12.57z"/>
			<path class="st2" d="M49.6,11.08c0-0.41-0.09-0.79-0.29-1.16c-0.67,0.53-1.02,1.21-1.02,2c0,0.5,0.07,0.85,0.3,1.43
				C49.12,12.74,49.6,11.97,49.6,11.08z"/>
			<path class="st2" d="M39.29,21.21c-0.07-0.23-0.1-0.44-0.13-0.61c-0.02-0.16-0.04-0.27-0.08-0.35c-0.05-0.1-0.12-0.14-0.24-0.14
				c-0.13,0-0.2,0.04-0.24,0.14c-0.04,0.08-0.06,0.19-0.08,0.35c-0.02,0.17-0.06,0.38-0.13,0.61c-0.08,0.28-0.21,0.52-0.31,0.71
				c-0.1,0.19-0.17,0.34-0.17,0.44c0,0.15,0.1,0.25,0.24,0.25c0.23,0,0.32-0.25,0.42-0.57l0.04-0.13l0.04-0.11
				c0.05-0.17,0.1-0.32,0.18-0.32c0.08,0,0.12,0.15,0.18,0.32l0.03,0.11l0.04,0.13c0.11,0.32,0.19,0.57,0.42,0.57
				c0.14,0,0.24-0.1,0.24-0.25c0-0.11-0.07-0.25-0.17-0.44C39.49,21.72,39.37,21.48,39.29,21.21z"/>
		</g>
		<g>
			<g>
				<path class="st2" d="M24.22,46.61c-0.04,0.04-0.09,0.05-0.14,0.05c-0.05-0.01-0.1-0.03-0.13-0.07
					c-0.03-0.04-0.05-0.09-0.04-0.14v-0.1c0.01-0.05,0.01-0.13,0-0.25c-0.01-0.11-0.03-0.19-0.03-0.24
					c-0.04-0.14,0.04-0.28,0.25-0.41c0.14-0.1,0.32-0.17,0.53-0.22c0.2-0.05,0.5-0.08,0.89-0.09c0.39-0.01,0.78,0.02,1.18,0.09
					c0.39,0.07,0.7,0.16,0.93,0.26c0.24,0.11,0.43,0.27,0.56,0.47c0.13,0.2,0.2,0.44,0.21,0.72c0.01,0.27-0.02,0.49-0.09,0.68
					c-0.07,0.2-0.22,0.4-0.46,0.6c-0.21,0.18-0.45,0.34-0.7,0.48c0.06,0.01,0.12,0.02,0.17,0.02c0.32,0.04,0.6,0.12,0.84,0.24
					c0.23,0.12,0.42,0.24,0.55,0.38c0.15,0.14,0.25,0.26,0.3,0.36c0.04,0.11,0.06,0.24,0.06,0.41c0,0.19-0.1,0.42-0.31,0.68
					c-0.18,0.24-0.34,0.44-0.47,0.58c-0.15,0.15-0.4,0.3-0.75,0.44c-0.32,0.14-0.64,0.25-0.93,0.33c-0.3,0.08-0.59,0.16-0.9,0.22
					c-0.29,0.05-0.57,0.1-0.81,0.14c-0.26,0.03-0.42,0.05-0.49,0.05h-0.1c-0.05-0.01-0.1-0.03-0.13-0.07
					c-0.03-0.04-0.05-0.08-0.05-0.14c0-0.05,0.02-0.1,0.06-0.14c0.04-0.04,0.09-0.05,0.14-0.04h0.09c0.05,0,0.19-0.01,0.42-0.05
					c0.12-0.02,0.25-0.03,0.39-0.06c-0.06-0.05-0.09-0.11-0.08-0.18l0.02-0.09c0.01-0.05,0.02-0.2,0.04-0.45
					c0.02-0.25,0.03-0.48,0.03-0.69c0.01-0.23,0.02-0.62,0.05-1.18c0.02-0.54,0.02-0.96,0.02-1.24v-0.95v-1.33
					c0-0.06,0.03-0.11,0.08-0.16c-0.29,0.01-0.52,0.04-0.68,0.08c-0.17,0.04-0.3,0.09-0.41,0.16c-0.03,0.02-0.05,0.04-0.07,0.06
					c0.01,0.06,0.02,0.14,0.03,0.24c0.01,0.14,0.01,0.25,0,0.33l-0.01,0.09C24.29,46.53,24.26,46.57,24.22,46.61z M25.7,48.96
					c0,0.08,0,0.17,0,0.26c-0.02,0.55-0.04,0.94-0.04,1.16c0,0.23-0.01,0.47-0.04,0.73c-0.02,0.26-0.04,0.42-0.06,0.48l-0.01,0.09
					c-0.01,0.03-0.02,0.06-0.03,0.08c0.05-0.01,0.1-0.02,0.15-0.03c0.29-0.05,0.57-0.12,0.86-0.19c0.28-0.08,0.57-0.19,0.88-0.32
					c0.29-0.13,0.5-0.25,0.61-0.36c0.13-0.13,0.28-0.31,0.45-0.55c0.15-0.2,0.23-0.34,0.23-0.44c0-0.11-0.01-0.2-0.03-0.26
					c-0.02-0.05-0.09-0.13-0.2-0.23c-0.11-0.11-0.27-0.22-0.46-0.31c-0.2-0.1-0.44-0.16-0.73-0.2c-0.23-0.03-0.45-0.05-0.66-0.05
					c-0.05,0-0.11,0-0.16,0c-0.13,0.01-0.24,0.01-0.33,0.02c-0.08,0.02-0.14,0.04-0.2,0.06c-0.01,0.01-0.02,0.03-0.03,0.03
					c-0.02,0.01-0.05,0.02-0.09,0.04C25.78,48.98,25.74,48.98,25.7,48.96z M25.63,45.52c0.06,0.04,0.09,0.09,0.09,0.16v1.33v0.95
					c0,0.15,0,0.34-0.01,0.57l0.08-0.01c0.07-0.02,0.17-0.04,0.27-0.06c0.08-0.02,0.17-0.05,0.26-0.07
					c0.05-0.01,0.11-0.03,0.18-0.06c0.12-0.05,0.27-0.11,0.44-0.19c0.25-0.13,0.48-0.28,0.68-0.45c0.19-0.17,0.31-0.32,0.35-0.46
					c0.05-0.14,0.07-0.31,0.07-0.53c0-0.21-0.05-0.38-0.14-0.52c-0.1-0.14-0.23-0.25-0.4-0.34c-0.2-0.09-0.48-0.17-0.84-0.24
					C26.32,45.54,25.97,45.52,25.63,45.52z"/>
				<path class="st2" d="M24.43,52.55h-0.1c-0.16-0.02-0.26-0.08-0.33-0.16c-0.08-0.09-0.12-0.2-0.12-0.31
					c0-0.13,0.05-0.24,0.15-0.33c0.09-0.08,0.19-0.12,0.3-0.12l0.12,0c0.04,0,0.17-0.02,0.38-0.04c0.03,0,0.05-0.01,0.08-0.01
					l0.03-0.12c0-0.02,0.01-0.17,0.04-0.41c0.02-0.24,0.03-0.47,0.03-0.67c0-0.17,0.01-0.41,0.03-0.73l0.02-0.46
					c0.02-0.54,0.02-0.95,0.02-1.23v-2.14c-0.11,0.01-0.2,0.03-0.27,0.05c-0.1,0.02-0.19,0.05-0.25,0.08l0.01,0.08
					c0.01,0.17,0.01,0.3,0,0.39l-0.01,0.1c0,0.1-0.06,0.22-0.16,0.31c-0.08,0.07-0.18,0.11-0.3,0.11c-0.16-0.01-0.27-0.07-0.35-0.17
					c-0.08-0.1-0.12-0.22-0.1-0.35l0-0.06c0.01-0.08,0.01-0.14,0-0.23l-0.03-0.22c-0.04-0.15-0.02-0.42,0.37-0.67
					c0.17-0.11,0.38-0.2,0.62-0.25c0.21-0.06,0.52-0.09,0.94-0.1l0.12,0c0.36,0,0.74,0.03,1.12,0.1c0.41,0.07,0.75,0.17,1,0.28
					c0.29,0.14,0.51,0.32,0.67,0.57c0.16,0.24,0.25,0.53,0.25,0.86c0.01,0.29-0.03,0.55-0.11,0.78c-0.08,0.24-0.27,0.48-0.54,0.72
					c-0.06,0.05-0.11,0.09-0.17,0.14c0.15,0.04,0.29,0.09,0.42,0.16c0.26,0.13,0.47,0.27,0.63,0.43c0.17,0.15,0.29,0.3,0.35,0.45
					c0.05,0.15,0.08,0.31,0.08,0.51c0,0.26-0.12,0.53-0.36,0.85c-0.18,0.25-0.35,0.45-0.49,0.6c-0.18,0.19-0.46,0.35-0.84,0.51
					c-0.33,0.15-0.66,0.26-0.97,0.34c-0.29,0.08-0.6,0.16-0.91,0.22c-0.3,0.06-0.57,0.1-0.83,0.14
					C24.68,52.54,24.51,52.55,24.43,52.55z M25.97,49.19v0.03c-0.02,0.56-0.04,0.95-0.04,1.17c0,0.23-0.01,0.48-0.04,0.74
					c-0.01,0.11-0.02,0.2-0.03,0.28c0.21-0.04,0.4-0.09,0.6-0.14c0.26-0.08,0.55-0.18,0.85-0.31c0.32-0.14,0.46-0.24,0.52-0.31
					c0.12-0.12,0.27-0.3,0.43-0.51c0.16-0.21,0.18-0.29,0.18-0.29c0-0.09-0.01-0.14-0.02-0.16l0,0c-0.01,0-0.04-0.04-0.13-0.13
					c-0.1-0.1-0.23-0.19-0.4-0.27c-0.17-0.08-0.39-0.14-0.64-0.18c-0.21-0.03-0.42-0.04-0.62-0.04h-0.16
					c-0.11,0.01-0.22,0.01-0.31,0.02c-0.01,0.01-0.05,0.02-0.09,0.03L25.97,49.19z M25.99,45.79v2.16c0,0.07,0,0.15,0,0.24
					c0.01,0,0.03,0,0.04-0.01c0.05-0.02,0.14-0.04,0.23-0.06c0.04-0.01,0.1-0.03,0.16-0.05c0.11-0.04,0.25-0.1,0.42-0.18
					c0.22-0.12,0.43-0.26,0.62-0.42c0.2-0.17,0.26-0.29,0.27-0.34c0.04-0.11,0.06-0.26,0.05-0.44c0-0.16-0.03-0.28-0.1-0.38
					c-0.07-0.1-0.17-0.18-0.3-0.25c-0.17-0.08-0.43-0.15-0.77-0.22C26.41,45.83,26.2,45.8,25.99,45.79z"/>
			</g>
			<g>
				<path class="st2" d="M29.32,46.66c0-0.05,0.02-0.1,0.05-0.14c0.03-0.04,0.08-0.06,0.13-0.06c0.06,0,0.1,0.01,0.14,0.04
					l0.09,0.08c0.06,0.06,0.15,0.18,0.27,0.35l0.01-0.02c0.13-0.17,0.31-0.32,0.54-0.46c0.23-0.14,0.53-0.23,0.88-0.27
					c0.37-0.05,0.74,0,1.1,0.16c0.36,0.16,0.67,0.4,0.92,0.73c0.23,0.31,0.43,0.71,0.6,1.19c0.16,0.48,0.27,0.95,0.34,1.4
					c0.01,0.1,0.02,0.2,0.03,0.3c0.04,0.28,0.07,0.55,0.09,0.82c0.03,0.21,0.05,0.42,0.07,0.64c0,0.07,0,0.14,0.01,0.22
					c0.01,0.08,0.01,0.14,0.01,0.17c0,0.04,0,0.07-0.01,0.12c-0.01,0.04-0.01,0.08-0.03,0.12c-0.01,0.07-0.04,0.12-0.1,0.15
					l-0.29,0.15c-0.21,0.11-0.51,0.2-0.9,0.27c-0.38,0.06-0.79,0.06-1.22-0.02c-0.44-0.07-0.82-0.23-1.13-0.45
					c-0.32-0.24-0.56-0.53-0.72-0.9c-0.16-0.37-0.17-0.76-0.03-1.17c0.14-0.4,0.37-0.75,0.7-1.08c0.35-0.34,0.8-0.53,1.35-0.58
					c0.57-0.04,1.02,0.11,1.37,0.46c0.12,0.11,0.23,0.23,0.32,0.36c-0.06-0.26-0.14-0.54-0.22-0.83c-0.15-0.45-0.33-0.81-0.55-1.09
					c-0.2-0.26-0.46-0.46-0.76-0.59c-0.3-0.14-0.6-0.18-0.91-0.15c-0.3,0.04-0.55,0.11-0.74,0.22c-0.19,0.11-0.33,0.23-0.42,0.37
					l-0.09,0.11c0.04,0.06,0.09,0.12,0.12,0.16l0.14,0.16c0.04,0.04,0.05,0.08,0.05,0.14c0,0.05-0.03,0.1-0.07,0.13
					c-0.04,0.03-0.09,0.05-0.14,0.05c-0.05-0.01-0.09-0.03-0.13-0.06l-0.15-0.16c-0.1-0.11-0.22-0.26-0.35-0.47
					c-0.12-0.18-0.2-0.3-0.25-0.34l-0.08-0.07C29.34,46.76,29.32,46.71,29.32,46.66z M34.13,50.82c-0.04-0.24-0.09-0.47-0.17-0.68
					c-0.13-0.39-0.34-0.72-0.64-1.01c-0.27-0.27-0.62-0.38-1.07-0.34c-0.46,0.04-0.83,0.2-1.11,0.46c-0.3,0.29-0.49,0.6-0.6,0.93
					c-0.11,0.32-0.1,0.62,0.02,0.9c0.12,0.3,0.31,0.54,0.58,0.73c0.27,0.2,0.6,0.33,0.98,0.4c0.38,0.06,0.75,0.06,1.09,0.01
					c0.35-0.05,0.61-0.13,0.79-0.22l0.2-0.1c0-0.01,0-0.03,0-0.06c-0.01-0.2-0.03-0.5-0.07-0.89C34.15,50.9,34.14,50.86,34.13,50.82
					z"/>
				<path class="st2" d="M32.74,52.91c-0.23,0-0.48-0.02-0.72-0.07c-0.47-0.08-0.89-0.25-1.24-0.5c-0.36-0.27-0.62-0.6-0.8-1.01
					c-0.19-0.43-0.2-0.89-0.04-1.36c0.15-0.43,0.41-0.83,0.77-1.19c0.39-0.38,0.9-0.6,1.51-0.65c0.49-0.04,0.86,0.04,1.2,0.24
					c-0.13-0.37-0.29-0.68-0.47-0.92c-0.17-0.22-0.39-0.39-0.65-0.51c-0.26-0.12-0.51-0.16-0.77-0.12
					c-0.26,0.03-0.48,0.09-0.64,0.18c-0.14,0.08-0.24,0.17-0.31,0.25l0.12,0.14c0.08,0.08,0.12,0.2,0.11,0.33
					c-0.01,0.12-0.06,0.24-0.17,0.32c-0.08,0.07-0.19,0.11-0.3,0.11c-0.2-0.02-0.29-0.1-0.34-0.16l-0.13-0.14
					c-0.11-0.12-0.23-0.28-0.38-0.5c-0.16-0.24-0.2-0.29-0.21-0.3L29.21,47c-0.1-0.09-0.16-0.21-0.16-0.34
					c0-0.12,0.04-0.24,0.13-0.32c0.07-0.08,0.18-0.13,0.3-0.14c0.13,0,0.23,0.03,0.32,0.09l0.11,0.09c0.03,0.03,0.07,0.08,0.12,0.13
					c0.12-0.1,0.25-0.2,0.4-0.29c0.26-0.16,0.6-0.26,0.99-0.3c0.39-0.05,0.83,0,1.24,0.18c0.4,0.18,0.75,0.45,1.02,0.81
					c0.25,0.34,0.47,0.76,0.64,1.27c0.16,0.49,0.28,0.97,0.35,1.44c0.01,0.11,0.02,0.2,0.03,0.3c0.04,0.29,0.07,0.57,0.09,0.83
					c0.03,0.19,0.05,0.42,0.07,0.64c0,0.08,0,0.14,0.01,0.22c0.01,0.09,0.01,0.15,0.01,0.19c0,0.04,0,0.09-0.01,0.14
					c-0.01,0.06-0.02,0.12-0.04,0.17c-0.03,0.14-0.12,0.26-0.25,0.32l-0.29,0.15c-0.23,0.12-0.56,0.22-0.97,0.29
					C33.14,52.89,32.94,52.91,32.74,52.91z M32.43,49.04c-0.05,0-0.09,0-0.14,0.01c-0.4,0.04-0.71,0.17-0.95,0.39
					c-0.26,0.26-0.44,0.53-0.53,0.82c-0.09,0.26-0.08,0.49,0.01,0.71c0.1,0.26,0.26,0.46,0.49,0.62c0.24,0.17,0.53,0.29,0.87,0.35
					c0.18,0.03,0.36,0.04,0.53,0.04l0,0c0.16,0,0.32-0.01,0.47-0.04c0.31-0.05,0.55-0.12,0.72-0.2l0.05-0.02
					c-0.01-0.21-0.03-0.46-0.06-0.76c0-0.05,0-0.08-0.01-0.1c-0.04-0.23-0.09-0.44-0.16-0.64c-0.12-0.36-0.3-0.65-0.57-0.91
					C32.96,49.13,32.73,49.04,32.43,49.04z"/>
			</g>
			<g>
				<path class="st2" d="M34.99,47.62c-0.05-0.02-0.08-0.06-0.11-0.1c-0.02-0.05-0.03-0.09-0.01-0.15c0.02-0.05,0.05-0.09,0.11-0.1
					l0.18-0.09c0.14-0.06,0.31-0.11,0.51-0.14c0.23-0.03,0.41,0.01,0.53,0.11c0.11,0.08,0.17,0.26,0.18,0.53
					c0.06-0.05,0.18-0.12,0.35-0.22c0.26-0.14,0.55-0.21,0.86-0.2c0.33,0.01,0.67,0.19,1,0.55c0.31,0.33,0.5,0.57,0.57,0.73
					l0.09,0.21c0.02,0.05,0.01,0.1-0.01,0.15c-0.02,0.05-0.05,0.09-0.1,0.11c-0.05,0.02-0.1,0.02-0.15,0
					c-0.05-0.02-0.09-0.05-0.11-0.1l-0.08-0.2c-0.05-0.12-0.22-0.33-0.5-0.63c-0.26-0.27-0.5-0.41-0.73-0.42
					c-0.24-0.01-0.46,0.04-0.67,0.16c-0.2,0.11-0.33,0.19-0.36,0.24l-0.07,0.09c-0.02,0.03-0.05,0.05-0.09,0.06
					c0.02,0.52,0.02,0.97,0.02,1.38c0,0.4,0.01,0.73,0.01,0.99c0,0.27-0.01,0.45-0.01,0.55l-0.01,0.06
					c0.28-0.03,0.44-0.05,0.49-0.07l0.1-0.02c0.04-0.02,0.09-0.01,0.14,0.02c0.05,0.03,0.08,0.07,0.1,0.11
					c0.02,0.05,0.01,0.1-0.02,0.15c-0.03,0.05-0.07,0.08-0.12,0.09L37,51.47c-0.08,0.02-0.35,0.06-0.8,0.11
					c-0.45,0.05-0.78,0.07-0.98,0.07c-0.02,0.01-0.03,0.01-0.05,0.01c-0.02,0-0.06,0-0.11,0.01c-0.06,0-0.1,0-0.12-0.02
					c-0.03-0.02-0.06-0.05-0.09-0.09c-0.03-0.04-0.03-0.09,0.01-0.16c0.02-0.09,0.05-0.14,0.09-0.16c0.04-0.02,0.07-0.02,0.1-0.01
					l0.03,0.02c0.12-0.01,0.27-0.03,0.45-0.04c0.16-0.01,0.3-0.05,0.41-0.09c0.05-0.02,0.08-0.04,0.09-0.06
					c0.01-0.08,0.01-0.25,0.01-0.49c-0.01-0.27-0.01-0.6-0.01-1c0-0.4-0.01-0.86-0.02-1.39c-0.01-0.39-0.03-0.64-0.07-0.75
					c-0.04-0.01-0.12-0.01-0.22,0c-0.16,0.02-0.29,0.06-0.41,0.1l-0.19,0.09C35.09,47.65,35.04,47.65,34.99,47.62z"/>
				<path class="st2" d="M35.03,51.93c-0.11,0-0.19-0.03-0.26-0.08c-0.04-0.03-0.09-0.08-0.13-0.13c-0.04-0.05-0.13-0.2-0.02-0.42
					c0.04-0.14,0.11-0.24,0.2-0.29c0.06-0.04,0.13-0.06,0.2-0.06l0.13,0.02c0.11-0.01,0.23-0.02,0.38-0.04
					c0.1-0.01,0.19-0.02,0.27-0.05c0-0.08,0-0.19,0-0.32c-0.01-0.26-0.01-0.59-0.01-1c0-0.4-0.01-0.86-0.02-1.38
					c0-0.23-0.01-0.39-0.02-0.49c-0.12,0.02-0.22,0.05-0.3,0.08l-0.18,0.08c-0.1,0.05-0.24,0.06-0.37,0
					c-0.1-0.04-0.18-0.12-0.23-0.22c-0.06-0.11-0.06-0.24-0.02-0.36c0.05-0.13,0.15-0.23,0.29-0.26l0.13-0.07
					c0.18-0.08,0.37-0.13,0.59-0.16c0.34-0.05,0.57,0.02,0.75,0.17c0.09,0.07,0.15,0.17,0.2,0.29c0.01-0.01,0.02-0.01,0.03-0.02
					c0.3-0.16,0.61-0.24,0.95-0.24c0.45,0.01,0.85,0.22,1.23,0.63c0.34,0.36,0.54,0.61,0.62,0.8l0.09,0.2
					c0.04,0.12,0.04,0.23,0,0.34c-0.05,0.13-0.14,0.23-0.26,0.27c-0.1,0.04-0.22,0.04-0.33,0c-0.11-0.04-0.2-0.12-0.25-0.23
					l-0.09-0.22c-0.01-0.02-0.08-0.16-0.44-0.54c-0.21-0.22-0.39-0.33-0.54-0.34c0,0,0,0,0,0c-0.22,0-0.38,0.04-0.53,0.12
					c-0.24,0.13-0.29,0.18-0.3,0.18l-0.05,0.07c-0.01,0.02-0.03,0.03-0.04,0.04c0.01,0.46,0.02,0.87,0.02,1.23
					c0,0.4,0,0.73,0.01,0.98c0,0.12,0,0.22,0,0.31c0.06-0.01,0.1-0.01,0.12-0.02l0.23-0.04c0.07,0,0.15,0.02,0.21,0.05
					c0.11,0.06,0.19,0.15,0.23,0.27c0.04,0.12,0.03,0.25-0.04,0.36c-0.06,0.11-0.16,0.19-0.28,0.22l-0.12,0.03
					c-0.05,0.01-0.21,0.04-0.83,0.12c-0.4,0.04-0.72,0.06-0.94,0.07h0L35.03,51.93z"/>
			</g>
			<g>
				<path class="st2" d="M39.65,47.62c-0.05-0.02-0.08-0.06-0.11-0.1c-0.02-0.05-0.02-0.09-0.01-0.15c0.02-0.05,0.06-0.09,0.11-0.1
					l0.18-0.09c0.14-0.06,0.31-0.11,0.51-0.14c0.23-0.03,0.41,0.01,0.53,0.11c0.11,0.08,0.17,0.26,0.18,0.53
					c0.06-0.05,0.18-0.12,0.35-0.22c0.27-0.14,0.55-0.21,0.86-0.2c0.33,0.01,0.67,0.19,1,0.55c0.31,0.33,0.5,0.57,0.57,0.73
					l0.09,0.21c0.01,0.05,0.01,0.1-0.01,0.15c-0.02,0.05-0.05,0.09-0.1,0.11c-0.05,0.02-0.1,0.02-0.15,0
					c-0.05-0.02-0.09-0.05-0.11-0.1l-0.08-0.2c-0.05-0.12-0.22-0.33-0.5-0.63c-0.26-0.27-0.5-0.41-0.72-0.42
					c-0.24-0.01-0.47,0.04-0.67,0.16c-0.21,0.11-0.33,0.19-0.36,0.24l-0.07,0.09c-0.02,0.03-0.05,0.05-0.09,0.06
					c0.01,0.52,0.02,0.97,0.02,1.38c0,0.4,0.01,0.73,0.01,0.99c0,0.27,0,0.45-0.01,0.55l-0.01,0.06c0.28-0.03,0.44-0.05,0.49-0.07
					l0.1-0.02c0.05-0.02,0.09-0.01,0.14,0.02c0.05,0.03,0.08,0.07,0.1,0.11c0.01,0.05,0.01,0.1-0.02,0.15
					c-0.03,0.05-0.07,0.08-0.12,0.09l-0.1,0.02c-0.08,0.02-0.35,0.06-0.8,0.11c-0.45,0.05-0.78,0.07-0.98,0.07
					c-0.02,0.01-0.03,0.01-0.05,0.01c-0.02,0-0.06,0-0.11,0.01c-0.06,0-0.1,0-0.12-0.02c-0.03-0.02-0.06-0.05-0.09-0.09
					c-0.03-0.04-0.03-0.09,0.01-0.16c0.02-0.09,0.05-0.14,0.09-0.16c0.04-0.02,0.07-0.02,0.1-0.01l0.03,0.02
					c0.12-0.01,0.27-0.03,0.45-0.04c0.16-0.01,0.29-0.05,0.41-0.09c0.05-0.02,0.08-0.04,0.09-0.06c0.01-0.08,0.01-0.25,0.01-0.49
					c-0.01-0.27-0.01-0.6-0.01-1c0-0.4-0.01-0.86-0.02-1.39c-0.01-0.39-0.03-0.64-0.07-0.75c-0.04-0.01-0.12-0.01-0.21,0
					c-0.16,0.02-0.29,0.06-0.41,0.1l-0.19,0.09C39.75,47.65,39.7,47.65,39.65,47.62z"/>
				<path class="st2" d="M39.69,51.93c-0.1,0-0.19-0.02-0.25-0.07c-0.05-0.04-0.1-0.08-0.14-0.14c-0.04-0.06-0.13-0.21-0.03-0.42
					c0.04-0.14,0.11-0.23,0.2-0.29c0.07-0.04,0.13-0.06,0.2-0.06l0.12,0.02c0.11-0.01,0.23-0.02,0.38-0.04
					c0.09-0.01,0.19-0.02,0.26-0.05c0-0.08,0-0.19,0-0.32c-0.01-0.26-0.01-0.59-0.01-1c0-0.4-0.01-0.86-0.02-1.38
					c0-0.23-0.01-0.39-0.02-0.49c-0.12,0.02-0.22,0.05-0.3,0.08l-0.18,0.08c-0.1,0.05-0.24,0.06-0.37,0
					c-0.09-0.04-0.18-0.12-0.23-0.22c-0.06-0.11-0.06-0.24-0.02-0.36c0.05-0.13,0.15-0.23,0.29-0.27l0.13-0.07
					c0.18-0.08,0.37-0.13,0.59-0.16c0.34-0.05,0.57,0.02,0.75,0.17c0.08,0.07,0.15,0.16,0.2,0.29c0.01-0.01,0.02-0.01,0.03-0.02
					c0.3-0.16,0.62-0.24,0.95-0.24c0.46,0.01,0.86,0.22,1.23,0.63c0.33,0.34,0.53,0.61,0.62,0.8l0.09,0.2
					c0.04,0.13,0.04,0.23,0,0.34c-0.05,0.14-0.15,0.24-0.27,0.28c-0.11,0.04-0.23,0.04-0.33,0c-0.11-0.04-0.2-0.12-0.25-0.23
					l-0.09-0.22c-0.01-0.03-0.09-0.17-0.45-0.54c-0.2-0.22-0.39-0.33-0.54-0.34c-0.21-0.03-0.38,0.04-0.53,0.12
					c-0.24,0.13-0.3,0.18-0.3,0.18l-0.05,0.07c-0.01,0.01-0.02,0.03-0.03,0.04c0.01,0.46,0.02,0.87,0.02,1.23
					c0,0.4,0,0.73,0.01,0.98c0,0.12,0,0.22,0,0.31c0.06-0.01,0.1-0.02,0.12-0.02l0.23-0.04c0.07,0,0.14,0.02,0.21,0.05
					c0.12,0.07,0.19,0.16,0.23,0.26c0.04,0.14,0.02,0.26-0.04,0.37c-0.06,0.11-0.16,0.19-0.28,0.22l-0.12,0.03
					c-0.05,0.01-0.21,0.04-0.83,0.12c-0.4,0.04-0.72,0.07-0.94,0.07L39.69,51.93z"/>
			</g>
			<g>
				<path class="st2" d="M44.15,46.66c0-0.05,0.02-0.1,0.05-0.14c0.03-0.04,0.08-0.06,0.13-0.06c0.05,0,0.1,0.01,0.14,0.04
					l0.09,0.08c0.06,0.06,0.15,0.18,0.27,0.35l0.01-0.02c0.13-0.17,0.31-0.32,0.55-0.46c0.23-0.14,0.53-0.23,0.88-0.27
					c0.37-0.05,0.74,0,1.1,0.16c0.36,0.16,0.67,0.4,0.92,0.73c0.23,0.31,0.43,0.71,0.6,1.19c0.16,0.48,0.27,0.95,0.34,1.4
					c0.01,0.1,0.02,0.2,0.03,0.3c0.04,0.28,0.07,0.55,0.09,0.82c0.03,0.21,0.05,0.42,0.07,0.64c0,0.07,0,0.14,0.01,0.22
					c0.01,0.08,0.01,0.14,0.01,0.17c0,0.04,0,0.07-0.01,0.12c0,0.04-0.01,0.08-0.03,0.12c-0.01,0.07-0.04,0.12-0.1,0.15l-0.3,0.15
					c-0.21,0.11-0.51,0.2-0.89,0.27c-0.38,0.06-0.79,0.06-1.22-0.02c-0.44-0.07-0.82-0.23-1.13-0.45c-0.32-0.24-0.56-0.53-0.71-0.9
					c-0.16-0.37-0.17-0.76-0.04-1.17c0.14-0.4,0.37-0.75,0.71-1.08c0.35-0.34,0.8-0.53,1.35-0.58c0.57-0.04,1.02,0.11,1.37,0.46
					c0.12,0.11,0.23,0.23,0.32,0.36c-0.06-0.26-0.13-0.54-0.23-0.83c-0.15-0.45-0.33-0.81-0.54-1.09c-0.2-0.26-0.46-0.46-0.76-0.59
					c-0.3-0.14-0.6-0.18-0.9-0.15c-0.3,0.04-0.55,0.11-0.74,0.22c-0.19,0.11-0.33,0.23-0.42,0.37l-0.09,0.11
					c0.04,0.06,0.09,0.12,0.12,0.16l0.14,0.16c0.04,0.04,0.05,0.08,0.05,0.14c-0.01,0.05-0.03,0.1-0.07,0.13
					c-0.04,0.03-0.09,0.05-0.14,0.05c-0.05-0.01-0.09-0.03-0.12-0.06l-0.15-0.16c-0.1-0.11-0.22-0.26-0.35-0.47
					c-0.12-0.18-0.21-0.3-0.25-0.34l-0.08-0.07C44.18,46.76,44.15,46.71,44.15,46.66z M48.97,50.82c-0.04-0.24-0.09-0.47-0.17-0.68
					c-0.13-0.39-0.34-0.72-0.63-1.01c-0.27-0.27-0.62-0.38-1.07-0.34c-0.46,0.04-0.83,0.2-1.11,0.46c-0.29,0.29-0.5,0.6-0.6,0.93
					c-0.11,0.32-0.1,0.62,0.02,0.9c0.12,0.3,0.31,0.54,0.58,0.73c0.27,0.2,0.6,0.33,0.97,0.4c0.39,0.06,0.75,0.06,1.1,0.01
					c0.34-0.05,0.61-0.13,0.79-0.22l0.21-0.1c0-0.01,0-0.03,0-0.06c-0.01-0.2-0.03-0.5-0.07-0.89
					C48.98,50.9,48.98,50.86,48.97,50.82z"/>
				<path class="st2" d="M47.57,52.91c-0.23,0-0.48-0.02-0.72-0.07c-0.47-0.08-0.89-0.25-1.24-0.5c-0.36-0.26-0.63-0.6-0.8-1.01
					c-0.19-0.43-0.2-0.89-0.04-1.36c0.15-0.43,0.41-0.83,0.77-1.19c0.39-0.37,0.89-0.6,1.51-0.65c0.48-0.04,0.86,0.04,1.2,0.24
					c-0.13-0.37-0.29-0.68-0.47-0.91c-0.18-0.23-0.39-0.39-0.65-0.51c-0.26-0.12-0.51-0.16-0.77-0.13
					c-0.26,0.03-0.48,0.09-0.64,0.18c-0.14,0.08-0.24,0.16-0.3,0.25l0.12,0.15c0.08,0.08,0.12,0.2,0.11,0.33
					c-0.01,0.13-0.07,0.24-0.17,0.32c-0.08,0.07-0.18,0.11-0.29,0.11c-0.2-0.02-0.29-0.1-0.34-0.17l-0.13-0.14
					c-0.11-0.12-0.24-0.29-0.38-0.5c-0.1-0.16-0.18-0.26-0.21-0.3L44.05,47c-0.1-0.08-0.16-0.21-0.16-0.34
					c0-0.13,0.05-0.24,0.13-0.32c0.07-0.08,0.18-0.13,0.3-0.14c0.13,0,0.24,0.03,0.32,0.1l0.1,0.09c0.03,0.03,0.07,0.08,0.12,0.13
					c0.11-0.1,0.25-0.2,0.4-0.29c0.26-0.16,0.6-0.26,0.99-0.3c0.39-0.06,0.83,0,1.23,0.18c0.4,0.17,0.75,0.45,1.02,0.81
					c0.25,0.33,0.47,0.76,0.64,1.27c0.16,0.49,0.28,0.98,0.35,1.44c0.01,0.11,0.02,0.2,0.03,0.3c0.04,0.29,0.07,0.57,0.09,0.84
					c0.03,0.19,0.05,0.41,0.07,0.64c0,0.08,0,0.15,0.01,0.22c0.01,0.09,0.01,0.15,0.01,0.19c0,0.04,0,0.09-0.01,0.14
					c-0.01,0.06-0.02,0.11-0.04,0.16c-0.03,0.14-0.11,0.25-0.24,0.32l-0.29,0.15c-0.24,0.12-0.56,0.22-0.97,0.29
					C47.98,52.89,47.78,52.91,47.57,52.91z M47.27,49.04c-0.05,0-0.09,0-0.14,0.01c-0.4,0.04-0.72,0.17-0.95,0.39
					c-0.26,0.26-0.44,0.53-0.53,0.82c-0.09,0.26-0.08,0.49,0.01,0.71c0.1,0.26,0.26,0.46,0.49,0.61c0.24,0.18,0.53,0.29,0.87,0.35
					c0.18,0.03,0.36,0.04,0.53,0.04l0,0c0.16,0,0.32-0.01,0.47-0.04c0.39-0.06,0.6-0.14,0.71-0.2l0.05-0.03
					c-0.01-0.21-0.03-0.46-0.06-0.76c0-0.05,0-0.08-0.01-0.09c-0.04-0.25-0.09-0.46-0.16-0.65c-0.12-0.35-0.31-0.66-0.57-0.91
					C47.8,49.13,47.57,49.04,47.27,49.04z"/>
			</g>
			<g>
				<path class="st2" d="M53.96,45.73c0.05-0.03,0.07-0.05,0.07-0.05s0.03,0.01,0.08,0.02c0.05,0.01,0.09,0.04,0.12,0.08
					c0.03,0.05,0.04,0.1,0.03,0.15l-0.02,0.1c-0.02,0.07-0.05,0.2-0.09,0.4c-0.04,0.21-0.07,0.37-0.09,0.5
					c-0.03,0.15-0.11,0.23-0.24,0.25c-0.13,0.02-0.24,0-0.33-0.07c-0.14-0.08-0.42-0.22-0.84-0.41c-0.39-0.18-0.75-0.27-1.07-0.26
					c-0.31,0.01-0.58,0.09-0.81,0.24c-0.19,0.13-0.27,0.27-0.26,0.43c0.03,0.21,0.13,0.42,0.29,0.62c0.16,0.2,0.39,0.35,0.7,0.44
					c0.32,0.1,0.64,0.17,0.96,0.22c0.36,0.04,0.67,0.12,0.92,0.24c0.27,0.12,0.48,0.3,0.64,0.55c0.16,0.24,0.22,0.53,0.19,0.86
					c-0.03,0.33-0.16,0.62-0.39,0.86c-0.21,0.22-0.45,0.39-0.71,0.51c-0.27,0.11-0.56,0.17-0.88,0.18
					c-0.32,0.01-0.62-0.03-0.91-0.11c-0.3-0.09-0.56-0.22-0.78-0.41c-0.19-0.17-0.34-0.35-0.46-0.53c0,0.05,0,0.1,0,0.14
					c-0.01,0.07-0.01,0.13-0.01,0.17v0.08c0,0.05-0.02,0.09-0.06,0.13c-0.04,0.04-0.08,0.06-0.14,0.06c-0.05,0-0.1-0.02-0.14-0.06
					c-0.04-0.04-0.06-0.09-0.06-0.13v-0.08c0-0.05,0-0.12,0.01-0.21c0.01-0.08,0.01-0.19,0.01-0.34c0-0.16,0.01-0.3,0.01-0.42
					c0-0.02,0-0.05,0.01-0.08c0-0.03,0.03-0.07,0.07-0.11c0.05-0.05,0.11-0.06,0.19-0.05c0.05,0.02,0.08,0.03,0.11,0.06
					c0.03,0.02,0.04,0.04,0.05,0.06c0.01,0.02,0.02,0.06,0.03,0.12c0.04,0.11,0.11,0.25,0.2,0.42c0.1,0.16,0.24,0.32,0.42,0.48
					c0.17,0.16,0.38,0.27,0.62,0.33c0.25,0.08,0.52,0.11,0.79,0.1c0.27-0.01,0.52-0.06,0.74-0.15c0.22-0.09,0.42-0.24,0.6-0.43
					c0.16-0.17,0.25-0.37,0.27-0.62c0.02-0.25-0.02-0.46-0.12-0.63c-0.11-0.18-0.27-0.31-0.48-0.4c-0.22-0.1-0.49-0.17-0.81-0.21
					c-0.35-0.05-0.69-0.13-1.04-0.24c-0.36-0.11-0.65-0.3-0.87-0.56c-0.22-0.26-0.34-0.53-0.37-0.81c-0.05-0.33,0.09-0.6,0.42-0.81
					c0.29-0.19,0.62-0.29,1.01-0.31c0.37-0.01,0.78,0.09,1.24,0.29c0.42,0.19,0.72,0.33,0.88,0.43c0.02-0.12,0.05-0.26,0.08-0.42
					c0.04-0.2,0.06-0.34,0.08-0.41l0.04-0.1C53.89,45.8,53.91,45.76,53.96,45.73z"/>
				<path class="st2" d="M52.14,51.86c-0.31,0-0.61-0.04-0.89-0.12c-0.34-0.09-0.64-0.25-0.88-0.46c-0.04-0.04-0.07-0.07-0.11-0.11
					c-0.01,0.02-0.03,0.04-0.05,0.07c-0.18,0.2-0.48,0.2-0.66,0.01c-0.09-0.11-0.13-0.21-0.13-0.32v-0.08c0-0.06,0-0.14,0.01-0.23
					c0.01-0.07,0.01-0.17,0.01-0.32c0-0.16,0.01-0.31,0.01-0.44c0-0.02,0-0.05,0.01-0.1c0.01-0.09,0.06-0.17,0.15-0.26
					c0.09-0.09,0.2-0.13,0.32-0.13l0.1,0.01c0.12,0.04,0.18,0.07,0.23,0.11c0.07,0.06,0.11,0.11,0.13,0.17
					c0.01,0.02,0.02,0.07,0.04,0.13c0.03,0.1,0.09,0.22,0.18,0.37c0.08,0.13,0.2,0.27,0.36,0.41c0.14,0.14,0.31,0.22,0.51,0.27
					c0.21,0.06,0.43,0.09,0.65,0.09l0.07,0c0.24-0.01,0.45-0.05,0.64-0.13c0.19-0.08,0.35-0.2,0.51-0.37
					c0.12-0.12,0.18-0.27,0.2-0.46c0.02-0.19-0.01-0.34-0.09-0.47c-0.08-0.13-0.2-0.22-0.36-0.29c-0.19-0.09-0.44-0.15-0.73-0.18
					c-0.37-0.06-0.73-0.14-1.09-0.25c-0.41-0.13-0.74-0.34-0.99-0.64c-0.25-0.3-0.39-0.62-0.43-0.95c-0.04-0.29,0.02-0.72,0.54-1.06
					c0.32-0.21,0.71-0.33,1.14-0.35c0,0,0,0,0.01,0c0.45,0,0.88,0.11,1.35,0.32c0.23,0.1,0.42,0.19,0.58,0.27l0.14-0.62
					c0-0.07,0.07-0.19,0.19-0.26l0.17-0.11l0.18,0.05c0.13,0.03,0.23,0.1,0.29,0.22c0.05,0.09,0.07,0.2,0.06,0.31l-0.12,0.53
					c-0.04,0.2-0.07,0.36-0.09,0.49c-0.05,0.26-0.22,0.42-0.45,0.47c-0.21,0.04-0.38,0-0.53-0.12c-0.11-0.06-0.37-0.19-0.79-0.38
					c-0.35-0.16-0.65-0.24-0.92-0.24c-0.29,0.01-0.51,0.07-0.69,0.2c-0.1,0.07-0.15,0.13-0.14,0.19c0.02,0.15,0.1,0.31,0.23,0.47
					c0.13,0.16,0.32,0.28,0.57,0.35c0.3,0.09,0.61,0.16,0.92,0.21c0.38,0.05,0.72,0.13,0.99,0.26c0.32,0.14,0.57,0.36,0.75,0.65
					c0.19,0.29,0.27,0.64,0.23,1.03c-0.04,0.4-0.19,0.74-0.46,1.02c-0.24,0.25-0.5,0.44-0.8,0.57c-0.31,0.13-0.64,0.2-0.99,0.21
					L52.14,51.86z"/>
			</g>
		</g>
		<path class="st2" d="M42.79,7.11c0,0.21-0.17,0.37-0.37,0.37c-0.21,0-0.37-0.16-0.37-0.37c0-0.21,0.17-0.38,0.37-0.38
			C42.62,6.74,42.79,6.91,42.79,7.11z"/>
		<g>
			<g>
				<polyline class="st2" points="43.72,8.14 43.97,8.14 44.19,8.33 43.8,8.34 				"/>
				<polygon class="st2" points="43.81,8.41 43.8,8.27 44.01,8.27 43.94,8.2 43.72,8.21 43.72,8.08 43.99,8.07 44.37,8.39 				"/>
			</g>
			<g>
				<path class="st2" d="M43.72,8.14c0,0-0.99-0.09-1.61,0.53c0,0-0.24-0.56-1.04-0.54c0,0-0.93,0-1.48,0.63
					c0,0,0.49,0.65,1.59,0.59c0,0-0.59,0.66-0.83,1.01c0,0-0.53-0.31-1.13,0c0,0-0.55,0.48-0.55,0.74c0,0,0.92,0.46,1.37-0.08
					c0,0,0.13,0,0.11,0.07c0,0-0.8,0.84-0.48,1.84c0,0,0.19,0.4,0.4,0.59c0,0,0.89-0.79-0.08-1.98c0,0,0.11-0.31,0.27-0.4
					c0,0,0.2-0.67,0.44-0.87c0,0-0.19,1.01,0.61,1.68c0,0,0.97-1.06-0.19-2.2c0,0,0.52-0.72,1.32-1.01c0,0-0.55,1.01,0.23,2.09
					c0,0,1.05-0.17,0.52-2.33l-0.05-0.09l0.77-0.08L43.72,8.14z"/>
				<path class="st2" d="M40.07,13.62l-0.04-0.04c-0.22-0.2-0.41-0.59-0.42-0.61c-0.27-0.83,0.19-1.54,0.4-1.81
					c-0.15,0.13-0.35,0.2-0.59,0.2c-0.39,0-0.76-0.18-0.78-0.19l-0.04-0.02v-0.04c0-0.28,0.51-0.73,0.57-0.79l0.02-0.01
					c0.19-0.1,0.39-0.15,0.59-0.15c0.26,0,0.46,0.07,0.55,0.12c0.19-0.27,0.53-0.66,0.7-0.86h0c-1.01,0-1.47-0.6-1.49-0.62
					L39.5,8.77l0.04-0.04c0.56-0.64,1.49-0.66,1.53-0.66l0.04,0c0.63,0,0.92,0.34,1.02,0.5c0.5-0.45,1.18-0.5,1.45-0.5
					c0.09,0,0.15,0.01,0.15,0.01l0.02,0l0.3,0.31l-0.81,0.08l0.01,0.02c0.23,0.93,0.2,1.62-0.08,2.05
					c-0.21,0.32-0.48,0.36-0.49,0.36l-0.04,0l-0.02-0.03c-0.61-0.85-0.42-1.67-0.3-2c-0.58,0.26-0.99,0.74-1.1,0.89
					c1.13,1.16,0.16,2.24,0.14,2.25l-0.04,0.05l-0.05-0.04c-0.6-0.5-0.67-1.18-0.66-1.52c-0.13,0.22-0.25,0.54-0.29,0.68l-0.01,0.03
					l-0.02,0.01c-0.1,0.06-0.19,0.24-0.22,0.33c0.96,1.21,0.06,2.03,0.05,2.04L40.07,13.62z M39.73,12.92c0,0,0.15,0.33,0.34,0.52
					c0.16-0.18,0.67-0.86-0.13-1.84l-0.02-0.03l0.01-0.04C39.74,11.86,39.56,12.37,39.73,12.92L39.73,12.92z M40.79,10.11
					l-0.03,0.18c0,0.01-0.16,0.94,0.54,1.58c0.17-0.22,0.74-1.1-0.23-2.06l-0.04-0.04l0.04-0.05c0.02-0.03,0.54-0.74,1.35-1.04
					l0.17-0.06L42.5,8.77c-0.01,0.01-0.5,0.97,0.2,1.98c0.07-0.02,0.23-0.09,0.36-0.3c0.18-0.27,0.33-0.83,0.07-1.93l-0.1-0.17
					l0.74-0.08l-0.07-0.07c-0.02,0-0.06,0-0.11,0c-0.28,0-0.96,0.05-1.43,0.52l-0.07,0.07L42.04,8.7c-0.01-0.02-0.23-0.5-0.94-0.5
					l-0.04,0c-0.01,0-0.87,0.01-1.39,0.57c0.13,0.14,0.61,0.57,1.49,0.52l0.16-0.01L41.22,9.4c0,0.01-0.59,0.66-0.82,1.01
					l-0.03,0.05l-0.06-0.03c0,0-0.23-0.13-0.54-0.13c-0.18,0-0.36,0.04-0.52,0.12c-0.19,0.17-0.47,0.47-0.51,0.64
					c0.11,0.04,0.39,0.15,0.68,0.15c0.25,0,0.44-0.08,0.57-0.24l0.02-0.03h0.03c0.04,0,0.12,0.01,0.16,0.07
					c0,0.01,0.01,0.02,0.01,0.03c0.06-0.19,0.23-0.65,0.43-0.82L40.79,10.11z"/>
			</g>
		</g>
	</g>
</g>
</svg>
