<?xml version="1.0" encoding="utf-8"?>
<!-- Generator: Adobe Illustrator 27.9.0, SVG Export Plug-In . SVG Version: 6.00 Build 0)  -->
<svg version="1.1" id="Capa_1" xmlns="http://www.w3.org/2000/svg" xmlns:xlink="http://www.w3.org/1999/xlink" x="0px" y="0px"
	 viewBox="0 0 154 124" style="enable-background:new 0 0 154 124;" xml:space="preserve">
<style type="text/css">
	.st0{fill:#033523;}
	.st1{fill:#429D6A;}
	.st2{fill:#FFFFFF;}
</style>
<g>
	<path class="st0" d="M0,37.08c0-2.45,1.74-5.46,3.87-6.69L73.14,0.92c2.12-1.22,5.6-1.22,7.73,0l69.26,29.48
		c2.13,1.23,3.87,4.23,3.87,6.69v51.93c0,2.45-1.74,5.46-3.87,6.69l-69.26,27.37c-2.13,1.23-5.61,1.23-7.73,0L3.87,95.7
		C1.74,94.47,0,91.46,0,89.01V37.08z"/>
	<path class="st1" d="M86.04,14.11c0,0-0.09-2.09-3.47-2.12c0,0-2.45-0.31-4.23,1.8c0,0-2.36,2.62-3.02,4.16l-0.6,0.86l-0.65,0.83
		l-0.47,0.56l-0.69,0.74l-1.03,0.97c0,0-4.5,2.75-8.98,2.89c0,0,1.41,3.11,10.9,5.45c0,0,2.47,0.42,2.34,1.54
		c0,0,0.38,1.45-1.66,1.45h7.57c0,0-2.01-1.18-3.97-1.11c0,0-0.63-0.86-0.65-1.82l0.24-0.1c0,0,0.38,1.29,0.58,1.58l4.68,0.68
		c0,0-2.63-1.59-4.07-1.35c0,0-0.52-0.47-0.26-1.41c0,0,4.82-0.36,7.82-5.77c0,0,1.99-4.92,0.17-7.83c0,0,1.72-0.04,2.28-1.21
		C88.86,14.88,87.92,14.01,86.04,14.11z"/>
	<g>
		<path class="st2" d="M77,122.26c-1.15,0-2.24-0.25-3-0.68l-0.11-0.07L4.63,94.13l-0.07-0.05c-1.53-1-2.82-3.32-2.82-5.08V37.08
			c0-1.78,1.3-4.1,2.84-5.09l0.14-0.08l69.2-29.45l0.09-0.06c0.74-0.42,1.84-0.68,2.99-0.68c1.14,0,2.24,0.26,3,0.69l0.08,0.05
			l69.27,29.48l0.07,0.05c1.55,0.98,2.84,3.31,2.84,5.09v51.93c0,1.75-1.29,4.08-2.81,5.08l-0.08,0.05l-0.09,0.04L80.1,121.51
			l-0.12,0.07C79.24,122.01,78.15,122.26,77,122.26z M5.49,92.49l69.21,27.35l0.23,0.14c0.46,0.27,1.26,0.43,2.06,0.43
			c0.81,0,1.59-0.17,2.06-0.44l0.3-0.16l69.15-27.32c0.97-0.69,1.9-2.38,1.9-3.48V37.08c0-1.12-0.95-2.82-1.94-3.49L79.26,4.13
			l-0.18-0.1C78.6,3.75,77.81,3.59,77,3.59c-0.81,0-1.6,0.17-2.07,0.44l-0.24,0.13L5.52,33.59c-0.98,0.67-1.93,2.38-1.93,3.49v51.93
			C3.59,90.11,4.52,91.8,5.49,92.49z"/>
		<g>
			<g>
				<g>
					<path class="st2" d="M39.47,78.84h-21.3V77.1h1.36c4.33,0,4.45-0.62,4.45-2.65V44.79c0-2.03-0.11-2.65-4.45-2.65h-1.36v-1.75
						h21.3c10.03,0,18.08,8.78,18.08,19.54C57.55,70.51,49.38,78.84,39.47,78.84z M48.76,47.43c-3.28-4.33-7.66-5.29-10.82-5.29
						h-6.37c-2.64,0-2.76,0.39-2.76,2.25v30.46c0,1.86,0.11,2.25,2.76,2.25h6.37c4.39,0,8-1.81,10.31-4.39
						c2.65-3.04,3.66-7.09,3.66-12.78C51.91,55.65,51.3,50.76,48.76,47.43z"/>
					<path class="st2" d="M39.47,78.97H18.04v-2.01h1.49c4.31,0,4.31-0.58,4.31-2.51V44.79c0-1.93,0-2.52-4.31-2.52h-1.49v-2.01
						h21.43c10.05,0,18.21,8.83,18.21,19.67C57.68,70.43,49.51,78.97,39.47,78.97z M18.3,78.71h21.16c9.9,0,17.95-8.43,17.95-18.78
						c0-10.7-8.05-19.4-17.95-19.4H18.3v1.48h1.22c4.37,0,4.58,0.67,4.58,2.78v29.67c0,2.11-0.21,2.78-4.58,2.78H18.3V78.71z
						 M37.94,77.23h-6.37c-2.65,0-2.89-0.39-2.89-2.38V44.39c0-1.99,0.24-2.38,2.89-2.38h6.37c3.14,0,7.59,0.93,10.92,5.35
						c2.11,2.76,3.18,7,3.18,12.58c0,5.96-1.13,9.93-3.69,12.87C45.84,75.62,42.04,77.23,37.94,77.23z M31.57,42.27
						c-2.62,0-2.62,0.37-2.62,2.12v30.46c0,1.76,0,2.12,2.62,2.12h6.37c4.02,0,7.74-1.59,10.21-4.34c2.51-2.88,3.63-6.8,3.63-12.69
						c0-5.52-1.05-9.7-3.13-12.42c-3.26-4.33-7.63-5.24-10.71-5.24H31.57z"/>
				</g>
				<g>
					<path class="st2" d="M88.41,78.84H62.67v-1.41c3.78,0,4.05-0.34,4.05-2.65V54.13c0-2.31-0.27-2.65-4.05-2.65v-1.4h25.07
						l1.07,9.51h-1.41c-0.63-6.14-2.09-8.11-8.63-8.11h-5.74c-1.97,0-2.25,0.17-2.25,2.42v9.29h3.94c4.17,0,4.85-1.13,4.85-4.9h1.41
						v11.2h-1.41c0-3.77-0.68-4.9-4.85-4.9h-3.94v10.42c0,2.25,0.28,2.42,2.25,2.42h6.08c7.22,0,8.57-2.7,9.52-9.51h1.41
						L88.41,78.84z"/>
					<path class="st2" d="M88.53,78.97H62.54V77.3h0.13c3.82,0,3.93-0.35,3.93-2.51V54.13c0-2.16-0.11-2.51-3.93-2.51h-0.13v-1.67
						h25.32l1.1,9.78h-1.67l-0.01-0.12c-0.61-5.99-1.92-7.99-8.5-7.99h-5.74c-1.88,0-2.12,0.08-2.12,2.29v9.16h3.81
						c4.1,0,4.72-1.07,4.72-4.77v-0.13h1.67v11.47h-1.67V69.5c0-3.69-0.62-4.77-4.72-4.77h-3.81v10.28c0,2.2,0.24,2.29,2.12,2.29
						h6.08c7.31,0,8.47-2.86,9.39-9.4l0.02-0.11h1.67L88.53,78.97z M62.81,78.71H88.3l1.6-10.66h-1.14
						c-0.92,6.47-2.2,9.51-9.64,9.51h-6.08c-2.03,0-2.39-0.19-2.39-2.55V64.47h4.08c4.24,0,4.96,1.16,4.98,4.89h1.14V58.43h-1.14
						c-0.02,3.73-0.74,4.9-4.98,4.9h-4.08V53.9c0-2.36,0.36-2.55,2.39-2.55h5.74c6.69,0,8.12,2.13,8.74,8.1h1.15l-1.04-9.25H62.81
						v1.14c3.6,0,4.05,0.34,4.05,2.78v20.66c0,2.44-0.45,2.77-4.05,2.78V78.71z"/>
				</g>
				<g>
					<path class="st2" d="M115.85,78.84H92.71v-1.41c3.77,0,4.05-0.34,4.05-2.65V53.96c0-2.31-0.29-2.65-4.05-2.65v-1.41l6.25,0.17
						l6.93-0.17v1.41c-4.22,0-5.07,0-5.07,2.81v20.88c0,2.25,0.29,2.42,2.26,2.42h3.55c7.89,0,8.45-5.01,8.9-9.51h1.41L115.85,78.84
						z"/>
					<path class="st2" d="M115.97,78.97h-23.4V77.3h0.14c3.81,0,3.92-0.35,3.92-2.51V53.96c0-2.16-0.11-2.52-3.92-2.52h-0.14v-1.67
						l6.39,0.17l7.06-0.17v1.67h-0.13c-4.19,0-4.94,0-4.94,2.69v20.88c0,2.2,0.24,2.29,2.12,2.29h3.55c7.83,0,8.33-4.99,8.77-9.4
						l0.01-0.11h1.68L115.97,78.97z M92.83,78.71h22.9l1.04-10.66h-1.14c-0.42,4.27-1.02,9.51-9.02,9.51h-3.55
						c-2.02,0-2.39-0.19-2.39-2.55V54.13c0-2.92,0.98-2.95,5.07-2.95v-1.14l-6.79,0.17l-6.13-0.17v1.14
						c3.6,0.01,4.06,0.34,4.06,2.78v20.83c0,2.44-0.46,2.77-4.06,2.78V78.71z"/>
				</g>
				<g>
					<path class="st2" d="M126.28,78.68l-6.3,0.16v-1.41c3.99,0,4.27-0.28,4.27-2.7V54.02c0-2.42-0.28-2.7-4.27-2.7v-1.41l6.3,0.17
						l6.31-0.17v1.41c-4,0-4.28,0.28-4.28,2.7v20.71c0,2.42,0.28,2.7,4.28,2.7v1.41L126.28,78.68z"/>
					<path class="st2" d="M132.72,78.98l-6.44-0.17l-6.44,0.17V77.3h0.14c3.99,0,4.14-0.29,4.14-2.57V54.02
						c0-2.28-0.16-2.57-4.14-2.57h-0.14v-1.67l6.45,0.17l6.44-0.17v1.67h-0.13c-4,0-4.15,0.29-4.15,2.57v20.71
						c0,2.28,0.15,2.57,4.15,2.57h0.13V78.98z M126.27,78.54l6.18,0.17v-1.14c-3.88-0.01-4.28-0.29-4.28-2.84V54.02
						c0-2.54,0.4-2.83,4.28-2.84v-1.14l-6.18,0.17l-6.18-0.17v1.14c3.87,0.01,4.28,0.3,4.28,2.84v20.71c0,2.55-0.4,2.83-4.28,2.84
						v1.14L126.27,78.54z"/>
				</g>
			</g>
		</g>
		<rect x="14.76" y="82.55" class="st2" width="122.63" height="0.54"/>
		<g>
			<path class="st2" d="M72.1,38.88c-1.37,0-2.47,0.4-3.48,1.32c0.99,0.63,2,0.92,3.17,0.92c1.44,0,2.72-0.41,3.97-1.29
				C74.09,39.04,73.16,38.88,72.1,38.88z"/>
			<path class="st2" d="M74.98,39.01c-0.4-1.22-0.96-2.14-1.67-2.85c-0.61-0.61-1.94-1.62-3.96-1.55c0.21,1.13,0.63,1.95,1.36,2.69
				C71.84,38.41,73.59,38.85,74.98,39.01z"/>
			<path class="st2" d="M67.63,37.47c-1.31,0-2.44,0.3-3.62,1c1.12,0.74,2.21,1.06,3.52,1.06c1.57,0,2.65-0.47,3.62-1.14
				C70.06,37.8,68.98,37.47,67.63,37.47z"/>
			<path class="st2" d="M69.11,37.58c0.02-2.3-0.5-3.41-1.34-4.3c-0.55-0.58-1.24-1.08-2.71-1.66c-0.16,1.61,0.41,3.2,1.66,4.44
				C67.42,36.76,68.1,37.2,69.11,37.58z"/>
			<path class="st2" d="M62.59,34.93c-1.17,0-2.02,0.27-2.88,0.8c0.83,1.01,1.97,1.8,3.73,1.8c1.15,0,2.26-0.27,3.34-0.8
				C65.76,35.84,64.39,34.93,62.59,34.93z"/>
			<path class="st2" d="M65.06,35.37c-0.07-1.87-0.8-3.72-1.99-4.88c-0.63-0.6-1.41-1.23-3.24-1.8c-0.08,0.99,0.08,2.72,1.68,4.33
				C62.58,34.08,63.68,34.74,65.06,35.37z"/>
			<path class="st2" d="M62.25,34.53c-0.51-1-1.29-2.11-2.48-2.86c-1.67-1.04-3.15-1.16-4.46-0.97c0.57,1.23,1.17,2.1,2.14,2.86
				C58.76,34.59,60.52,34.7,62.25,34.53z"/>
			<path class="st2" d="M58.83,30.62c-0.07-1.27-0.37-2.8-1.18-3.89c-0.81-1.08-1.8-1.75-3.38-2.18c-0.01,1.65,0.54,3.04,1.63,4.13
				C56.62,29.41,57.62,30.06,58.83,30.62z"/>
			<path class="st2" d="M58.1,23.28c0-1.55-0.69-2.9-2.02-3.94c-0.38,0.72-0.57,1.48-0.57,2.28c0,1.75,0.95,3.26,1.99,4.48
				C57.98,24.96,58.1,24.26,58.1,23.28z"/>
			<path class="st2" d="M77.78,39.82c1.25,0.88,2.53,1.29,3.97,1.29c1.17,0,2.18-0.28,3.17-0.92c-1.02-0.92-2.12-1.32-3.49-1.32
				C80.38,38.88,79.44,39.04,77.78,39.82z"/>
			<path class="st2" d="M84.18,34.6c-2.03-0.06-3.36,0.94-3.97,1.55c-0.71,0.71-1.25,1.63-1.66,2.85c1.39-0.16,3.15-0.6,4.27-1.72
				C83.56,36.56,83.98,35.73,84.18,34.6z"/>
			<path class="st2" d="M82.39,38.39c0.97,0.67,2.05,1.14,3.61,1.14c1.31,0,2.4-0.32,3.53-1.06c-1.19-0.7-2.32-1-3.64-1
				C84.55,37.47,83.48,37.8,82.39,38.39z"/>
			<path class="st2" d="M88.47,31.62c-1.48,0.57-2.16,1.08-2.71,1.66c-0.83,0.89-1.37,2-1.35,4.3c1.02-0.38,1.69-0.82,2.4-1.52
				C88.06,34.82,88.63,33.23,88.47,31.62z"/>
			<path class="st2" d="M86.75,36.73c1.08,0.53,2.2,0.8,3.35,0.8c1.76,0,2.9-0.78,3.72-1.79c-0.87-0.53-1.71-0.8-2.88-0.8
				C89.15,34.93,87.77,35.84,86.75,36.73z"/>
			<path class="st2" d="M92.03,33.02c1.6-1.61,1.76-3.34,1.68-4.33c-1.83,0.57-2.62,1.2-3.24,1.8c-1.19,1.17-1.93,3.02-1.99,4.88
				C89.86,34.74,90.96,34.08,92.03,33.02z"/>
			<path class="st2" d="M93.77,31.67c-1.19,0.75-1.98,1.86-2.48,2.86c1.72,0.16,3.48,0.05,4.79-0.98c0.97-0.76,1.57-1.63,2.14-2.85
				C96.91,30.52,95.43,30.63,93.77,31.67z"/>
			<path class="st2" d="M99.26,24.55c-1.57,0.44-2.57,1.11-3.38,2.19c-0.81,1.09-1.11,2.62-1.18,3.89c1.21-0.56,2.21-1.21,2.93-1.94
				C98.73,27.59,99.27,26.21,99.26,24.55z"/>
			<path class="st2" d="M98.01,21.62c0-0.81-0.18-1.56-0.57-2.28c-1.32,1.04-2.01,2.39-2.01,3.94c0,0.98,0.13,1.68,0.6,2.82
				C97.06,24.88,98.01,23.37,98.01,21.62z"/>
			<path class="st2" d="M77.65,41.54c-0.14-0.45-0.2-0.86-0.25-1.19c-0.05-0.32-0.08-0.54-0.15-0.68c-0.09-0.2-0.23-0.28-0.48-0.28
				c-0.25,0-0.39,0.08-0.48,0.28c-0.07,0.15-0.11,0.37-0.15,0.68c-0.05,0.33-0.11,0.74-0.25,1.19c-0.16,0.54-0.41,1.02-0.6,1.4
				c-0.2,0.38-0.34,0.66-0.34,0.87c0,0.29,0.2,0.49,0.48,0.49c0.46,0,0.63-0.5,0.84-1.12l0.08-0.26l0.07-0.21
				c0.11-0.33,0.2-0.63,0.36-0.63c0.15,0,0.24,0.29,0.36,0.63l0.07,0.21l0.09,0.26c0.21,0.63,0.37,1.12,0.83,1.12
				c0.28,0,0.48-0.2,0.48-0.49c0-0.21-0.14-0.49-0.34-0.87C78.06,42.56,77.81,42.09,77.65,41.54z"/>
		</g>
		<g>
			<g>
				<path class="st2" d="M47.91,91.54c-0.08,0.07-0.18,0.1-0.28,0.09c-0.1-0.01-0.19-0.05-0.26-0.14c-0.07-0.08-0.09-0.17-0.08-0.28
					v-0.2c0.02-0.11,0.02-0.27,0-0.49c-0.03-0.23-0.05-0.38-0.06-0.47c-0.08-0.28,0.09-0.55,0.49-0.81
					c0.28-0.19,0.63-0.33,1.05-0.42c0.4-0.1,0.99-0.16,1.76-0.18c0.77-0.01,1.55,0.05,2.34,0.18c0.78,0.13,1.39,0.31,1.84,0.51
					c0.48,0.22,0.84,0.53,1.11,0.93c0.26,0.4,0.4,0.87,0.42,1.42c0.02,0.52-0.05,0.97-0.18,1.34c-0.13,0.39-0.44,0.78-0.91,1.19
					c-0.42,0.35-0.89,0.67-1.39,0.94c0.12,0.02,0.23,0.03,0.34,0.05c0.64,0.09,1.19,0.25,1.66,0.47c0.46,0.23,0.83,0.47,1.09,0.74
					c0.3,0.27,0.49,0.51,0.58,0.72c0.08,0.21,0.11,0.47,0.11,0.8c0,0.37-0.2,0.82-0.61,1.34c-0.35,0.48-0.67,0.86-0.94,1.14
					c-0.3,0.3-0.79,0.59-1.48,0.87c-0.64,0.28-1.26,0.5-1.83,0.65c-0.58,0.17-1.17,0.31-1.77,0.42c-0.58,0.11-1.12,0.19-1.61,0.27
					c-0.51,0.06-0.83,0.09-0.96,0.09h-0.2c-0.11-0.02-0.19-0.06-0.26-0.14c-0.07-0.08-0.1-0.16-0.1-0.27c0-0.1,0.04-0.19,0.12-0.27
					c0.08-0.08,0.18-0.1,0.28-0.09h0.18c0.09,0,0.37-0.03,0.83-0.09c0.24-0.03,0.49-0.07,0.76-0.11c-0.12-0.09-0.17-0.21-0.16-0.36
					l0.05-0.18c0.01-0.1,0.04-0.4,0.09-0.89c0.04-0.49,0.06-0.95,0.06-1.37c0.01-0.45,0.05-1.22,0.09-2.33
					c0.03-1.07,0.04-1.88,0.04-2.43v-1.86v-2.61c0-0.12,0.05-0.22,0.16-0.31c-0.58,0.03-1.03,0.08-1.34,0.16
					c-0.33,0.08-0.6,0.18-0.8,0.31c-0.06,0.04-0.11,0.08-0.14,0.11c0.02,0.12,0.04,0.28,0.07,0.47c0.02,0.27,0.02,0.48,0,0.65
					l-0.02,0.17C48.03,91.39,47.99,91.47,47.91,91.54z M50.83,96.16c0,0.16,0,0.33,0,0.51c-0.04,1.09-0.07,1.85-0.09,2.28
					c0,0.45-0.03,0.93-0.07,1.43c-0.04,0.51-0.08,0.82-0.11,0.94l-0.03,0.18c-0.02,0.06-0.04,0.11-0.07,0.15
					c0.1-0.01,0.2-0.04,0.29-0.06c0.56-0.11,1.13-0.23,1.7-0.38c0.55-0.16,1.13-0.37,1.75-0.62c0.58-0.25,0.98-0.49,1.2-0.71
					c0.26-0.26,0.56-0.62,0.9-1.08c0.3-0.39,0.45-0.68,0.45-0.87c0-0.22-0.03-0.39-0.06-0.51c-0.05-0.1-0.18-0.25-0.39-0.45
					c-0.22-0.22-0.53-0.43-0.91-0.61c-0.39-0.19-0.87-0.32-1.43-0.39c-0.45-0.06-0.88-0.09-1.3-0.09c-0.11,0-0.21,0-0.32,0
					c-0.25,0.01-0.47,0.03-0.65,0.04c-0.15,0.05-0.28,0.08-0.4,0.11c-0.01,0.03-0.04,0.05-0.07,0.07c-0.03,0.01-0.09,0.04-0.17,0.08
					C50.98,96.21,50.9,96.21,50.83,96.16z M50.69,89.41c0.12,0.08,0.18,0.18,0.18,0.31v2.61v1.86c0,0.3-0.01,0.67-0.02,1.12
					l0.16-0.02c0.15-0.04,0.33-0.08,0.54-0.11c0.16-0.05,0.33-0.09,0.51-0.13c0.11-0.03,0.23-0.07,0.36-0.11
					c0.24-0.09,0.53-0.22,0.88-0.38c0.49-0.25,0.94-0.55,1.34-0.89c0.37-0.33,0.61-0.63,0.7-0.9c0.1-0.27,0.15-0.62,0.13-1.05
					c0-0.4-0.1-0.74-0.28-1.02c-0.19-0.28-0.45-0.5-0.8-0.66c-0.39-0.18-0.94-0.33-1.66-0.47C52.04,89.44,51.37,89.39,50.69,89.41z"
					/>
				<path class="st2" d="M48.32,103.24h-0.2c-0.32-0.05-0.51-0.15-0.65-0.31c-0.15-0.17-0.23-0.39-0.23-0.61
					c0-0.25,0.1-0.47,0.29-0.65c0.17-0.16,0.37-0.24,0.59-0.24l0.23,0c0.09,0,0.34-0.03,0.76-0.08c0.05-0.01,0.1-0.01,0.15-0.02
					l0.06-0.24c0-0.04,0.03-0.33,0.08-0.81c0.04-0.47,0.06-0.92,0.06-1.32c0.01-0.33,0.03-0.81,0.05-1.44l0.04-0.9
					c0.03-1.06,0.04-1.87,0.04-2.41v-4.21c-0.22,0.02-0.39,0.05-0.54,0.09c-0.2,0.05-0.37,0.1-0.5,0.16l0.02,0.15
					c0.02,0.34,0.02,0.59,0.01,0.77l-0.02,0.19c0.01,0.2-0.11,0.44-0.32,0.6c-0.16,0.13-0.36,0.21-0.59,0.21
					c-0.32-0.02-0.53-0.14-0.68-0.33c-0.16-0.2-0.23-0.44-0.19-0.69l-0.01-0.12c0.02-0.15,0.01-0.28,0-0.46l-0.06-0.44
					c-0.09-0.29-0.04-0.82,0.73-1.31c0.33-0.22,0.74-0.39,1.22-0.49c0.42-0.11,1.03-0.17,1.86-0.19l0.23,0
					c0.72,0,1.46,0.06,2.21,0.19c0.81,0.14,1.47,0.33,1.97,0.55c0.56,0.27,1.01,0.64,1.32,1.11c0.32,0.48,0.48,1.05,0.5,1.7
					c0.02,0.57-0.05,1.09-0.21,1.53c-0.16,0.47-0.52,0.95-1.07,1.41c-0.11,0.09-0.22,0.18-0.34,0.27c0.3,0.08,0.57,0.19,0.83,0.31
					c0.52,0.25,0.93,0.54,1.24,0.84c0.34,0.3,0.57,0.6,0.69,0.88c0.11,0.29,0.15,0.61,0.15,1.01c0,0.5-0.23,1.05-0.72,1.66
					c-0.36,0.49-0.69,0.88-0.97,1.18c-0.36,0.37-0.91,0.69-1.66,1c-0.65,0.29-1.3,0.52-1.91,0.67c-0.58,0.17-1.18,0.31-1.79,0.43
					c-0.59,0.11-1.13,0.2-1.63,0.27C48.81,103.21,48.47,103.24,48.32,103.24z M51.35,96.61v0.06c-0.05,1.11-0.08,1.86-0.09,2.3
					c0,0.45-0.03,0.94-0.07,1.46c-0.02,0.22-0.04,0.4-0.05,0.55c0.41-0.09,0.8-0.18,1.19-0.28c0.52-0.15,1.09-0.35,1.68-0.6
					c0.63-0.28,0.91-0.48,1.04-0.6c0.24-0.24,0.53-0.58,0.84-1.01c0.32-0.42,0.35-0.57,0.35-0.57c0-0.17-0.02-0.27-0.03-0.32l0,0
					c-0.01,0-0.08-0.09-0.25-0.25c-0.19-0.19-0.46-0.36-0.79-0.52c-0.33-0.16-0.76-0.28-1.27-0.35c-0.42-0.06-0.83-0.09-1.23-0.09
					h-0.32c-0.22,0.01-0.43,0.03-0.6,0.04c-0.03,0.02-0.1,0.04-0.18,0.06L51.35,96.61z M51.4,89.94v4.26c0,0.14,0,0.3-0.01,0.48
					c0.03,0,0.06-0.01,0.09-0.01c0.09-0.03,0.27-0.08,0.46-0.12c0.08-0.02,0.19-0.06,0.31-0.1c0.22-0.08,0.49-0.2,0.82-0.36
					c0.44-0.23,0.85-0.5,1.23-0.82c0.39-0.34,0.51-0.56,0.54-0.67c0.08-0.22,0.12-0.51,0.1-0.86c0-0.31-0.06-0.55-0.19-0.74
					c-0.13-0.2-0.33-0.36-0.59-0.48c-0.34-0.15-0.86-0.3-1.53-0.42C52.23,90.01,51.81,89.96,51.4,89.94z"/>
			</g>
			<g>
				<path class="st2" d="M57.97,91.64c0-0.11,0.03-0.2,0.1-0.27c0.06-0.08,0.15-0.12,0.25-0.12c0.11-0.01,0.19,0.02,0.27,0.08
					l0.18,0.16c0.12,0.12,0.3,0.35,0.54,0.69l0.02-0.04c0.26-0.33,0.61-0.63,1.07-0.9c0.46-0.27,1.04-0.45,1.75-0.53
					c0.73-0.1,1.45,0,2.17,0.32c0.72,0.31,1.32,0.79,1.81,1.43c0.46,0.61,0.86,1.39,1.18,2.35c0.32,0.95,0.54,1.87,0.68,2.75
					c0.01,0.19,0.03,0.39,0.06,0.58c0.08,0.55,0.13,1.08,0.18,1.61c0.06,0.4,0.11,0.83,0.14,1.26c0,0.14,0.01,0.28,0.02,0.43
					c0.02,0.16,0.02,0.27,0.02,0.33c0,0.07-0.01,0.14-0.01,0.23c-0.01,0.08-0.03,0.16-0.05,0.24c-0.02,0.13-0.08,0.23-0.2,0.29
					l-0.58,0.29c-0.42,0.22-1.01,0.4-1.77,0.52c-0.76,0.13-1.57,0.12-2.41-0.03c-0.87-0.15-1.61-0.45-2.24-0.89
					c-0.63-0.46-1.1-1.05-1.41-1.77c-0.31-0.73-0.33-1.49-0.06-2.3c0.27-0.78,0.73-1.48,1.39-2.13c0.69-0.66,1.57-1.04,2.66-1.14
					c1.12-0.09,2.02,0.21,2.71,0.9c0.24,0.22,0.45,0.46,0.62,0.71c-0.12-0.52-0.27-1.07-0.44-1.63c-0.3-0.88-0.66-1.6-1.08-2.15
					c-0.4-0.52-0.91-0.91-1.5-1.16c-0.6-0.27-1.19-0.36-1.79-0.29c-0.6,0.07-1.08,0.21-1.45,0.43c-0.37,0.22-0.65,0.46-0.83,0.73
					l-0.18,0.22c0.09,0.12,0.17,0.23,0.24,0.32l0.27,0.31c0.07,0.08,0.1,0.17,0.1,0.27c-0.01,0.11-0.05,0.19-0.13,0.26
					c-0.08,0.07-0.18,0.1-0.28,0.09c-0.1-0.01-0.19-0.05-0.25-0.13l-0.29-0.31c-0.2-0.21-0.42-0.51-0.69-0.92
					c-0.24-0.36-0.4-0.58-0.49-0.67l-0.16-0.13C58.01,91.84,57.97,91.74,57.97,91.64z M67.48,99.83c-0.07-0.48-0.19-0.92-0.33-1.34
					c-0.25-0.76-0.67-1.43-1.25-1.99c-0.52-0.52-1.22-0.75-2.11-0.67c-0.91,0.09-1.64,0.4-2.19,0.91c-0.58,0.57-0.98,1.18-1.18,1.83
					c-0.21,0.63-0.19,1.22,0.04,1.77c0.24,0.58,0.62,1.06,1.14,1.43c0.54,0.39,1.18,0.65,1.93,0.78c0.76,0.12,1.48,0.12,2.16,0.01
					c0.68-0.11,1.2-0.26,1.56-0.43l0.4-0.2c0-0.03,0-0.07,0-0.11c-0.01-0.4-0.06-0.98-0.14-1.75C67.5,99.98,67.49,99.9,67.48,99.83z
					"/>
				<path class="st2" d="M64.72,103.94c-0.46,0-0.94-0.04-1.43-0.13c-0.93-0.16-1.76-0.49-2.45-0.98c-0.7-0.52-1.23-1.19-1.59-1.98
					c-0.37-0.85-0.39-1.76-0.08-2.68c0.29-0.85,0.8-1.63,1.52-2.33c0.77-0.74,1.77-1.17,2.98-1.29c0.96-0.08,1.7,0.09,2.37,0.47
					c-0.26-0.72-0.58-1.33-0.93-1.8c-0.34-0.44-0.78-0.77-1.29-1c-0.52-0.23-1.01-0.31-1.52-0.25c-0.52,0.06-0.94,0.18-1.26,0.36
					c-0.27,0.16-0.47,0.32-0.6,0.5l0.25,0.28c0.16,0.16,0.25,0.4,0.23,0.65c-0.02,0.25-0.13,0.47-0.33,0.63
					c-0.17,0.14-0.37,0.21-0.59,0.21c-0.39-0.04-0.58-0.2-0.68-0.32l-0.26-0.28c-0.21-0.23-0.46-0.55-0.75-0.98
					c-0.31-0.47-0.4-0.57-0.42-0.59l-0.13-0.11c-0.2-0.17-0.32-0.41-0.32-0.67c0-0.25,0.09-0.46,0.25-0.63
					c0.13-0.16,0.35-0.26,0.59-0.28c0.25,0.01,0.46,0.06,0.62,0.18l0.21,0.18c0.07,0.07,0.14,0.16,0.23,0.26
					c0.23-0.2,0.49-0.4,0.79-0.57c0.52-0.31,1.18-0.51,1.95-0.6c0.77-0.11,1.65,0.01,2.44,0.36c0.79,0.35,1.47,0.88,2.02,1.59
					c0.5,0.67,0.92,1.51,1.26,2.51c0.32,0.97,0.55,1.92,0.7,2.84c0.02,0.22,0.04,0.4,0.06,0.58c0.08,0.57,0.14,1.11,0.18,1.64
					c0.06,0.38,0.1,0.82,0.13,1.26c0,0.16,0.01,0.28,0.02,0.42c0.02,0.17,0.03,0.3,0.03,0.38c0,0.08-0.01,0.17-0.01,0.27
					c-0.02,0.12-0.04,0.23-0.07,0.33c-0.06,0.28-0.23,0.5-0.48,0.62l-0.57,0.29c-0.46,0.24-1.11,0.44-1.92,0.57
					C65.51,103.9,65.12,103.94,64.72,103.94z M64.11,96.33c-0.09,0-0.19,0.01-0.29,0.01c-0.79,0.08-1.4,0.33-1.88,0.78
					c-0.52,0.51-0.86,1.04-1.04,1.61c-0.17,0.51-0.16,0.96,0.03,1.4c0.2,0.5,0.52,0.9,0.96,1.21c0.48,0.34,1.05,0.58,1.71,0.69
					c0.36,0.06,0.71,0.09,1.05,0.09l0,0c0.32,0,0.63-0.03,0.93-0.08c0.6-0.09,1.09-0.23,1.41-0.39l0.1-0.05
					c-0.02-0.41-0.06-0.9-0.12-1.49c-0.01-0.1-0.01-0.15-0.02-0.19c-0.07-0.46-0.17-0.86-0.32-1.27c-0.23-0.7-0.6-1.28-1.12-1.8
					C65.16,96.51,64.7,96.33,64.11,96.33z"/>
			</g>
			<g>
				<path class="st2" d="M69.17,93.54c-0.1-0.04-0.17-0.11-0.21-0.2c-0.05-0.09-0.05-0.19-0.01-0.29c0.04-0.11,0.11-0.17,0.21-0.2
					l0.35-0.18c0.28-0.12,0.62-0.21,1.01-0.27c0.46-0.06,0.81,0.01,1.05,0.22c0.21,0.17,0.33,0.51,0.36,1.03
					c0.12-0.09,0.36-0.23,0.69-0.43c0.52-0.28,1.09-0.42,1.7-0.4c0.66,0.02,1.31,0.37,1.97,1.08c0.61,0.64,0.99,1.12,1.12,1.43
					l0.18,0.4c0.03,0.09,0.03,0.19-0.01,0.29c-0.03,0.1-0.1,0.18-0.2,0.21c-0.1,0.04-0.19,0.04-0.29,0c-0.1-0.03-0.17-0.1-0.22-0.19
					l-0.16-0.4c-0.1-0.24-0.43-0.65-0.98-1.23c-0.51-0.54-0.98-0.81-1.44-0.83c-0.47-0.02-0.92,0.09-1.32,0.31
					c-0.4,0.22-0.64,0.38-0.72,0.47l-0.13,0.18c-0.05,0.06-0.11,0.09-0.19,0.11c0.03,1.02,0.05,1.92,0.05,2.71
					c0,0.79,0.01,1.44,0.03,1.94c0,0.52-0.01,0.88-0.03,1.07l-0.02,0.11c0.55-0.06,0.87-0.1,0.96-0.13l0.2-0.04
					c0.09-0.03,0.18-0.02,0.28,0.03c0.1,0.06,0.16,0.13,0.19,0.22c0.03,0.1,0.02,0.2-0.03,0.3c-0.05,0.09-0.13,0.16-0.23,0.19
					l-0.2,0.05c-0.17,0.04-0.69,0.12-1.59,0.22c-0.89,0.09-1.54,0.13-1.93,0.13c-0.03,0.02-0.06,0.02-0.1,0.02
					c-0.04,0-0.11,0-0.23,0.01c-0.11,0.01-0.19-0.01-0.24-0.04c-0.05-0.04-0.11-0.09-0.17-0.17c-0.06-0.08-0.05-0.18,0.02-0.31
					c0.05-0.17,0.11-0.27,0.18-0.32c0.08-0.04,0.14-0.05,0.2-0.02l0.06,0.04c0.24-0.03,0.54-0.06,0.89-0.09
					c0.31-0.03,0.58-0.09,0.81-0.18c0.11-0.05,0.17-0.08,0.18-0.11c0.01-0.17,0.02-0.49,0.02-0.96c-0.02-0.52-0.02-1.18-0.02-1.97
					c0-0.79-0.02-1.7-0.04-2.73c-0.02-0.77-0.06-1.27-0.14-1.48c-0.09-0.03-0.23-0.03-0.42,0c-0.31,0.05-0.58,0.11-0.8,0.2
					l-0.38,0.18C69.36,93.59,69.27,93.59,69.17,93.54z"/>
				<path class="st2" d="M69.25,102.02c-0.21,0-0.38-0.05-0.51-0.16c-0.09-0.06-0.18-0.15-0.26-0.26c-0.08-0.1-0.26-0.4-0.05-0.82
					c0.08-0.28,0.22-0.46,0.4-0.57c0.12-0.07,0.26-0.11,0.39-0.11l0.25,0.05c0.21-0.02,0.46-0.05,0.74-0.07
					c0.19-0.02,0.37-0.05,0.52-0.1c0.01-0.16,0.01-0.38,0.01-0.64c-0.02-0.51-0.02-1.17-0.02-1.97c0-0.79-0.01-1.69-0.04-2.71
					c-0.01-0.46-0.03-0.76-0.05-0.96c-0.24,0.04-0.44,0.09-0.59,0.16l-0.36,0.17c-0.2,0.1-0.48,0.11-0.72,0
					c-0.19-0.08-0.36-0.24-0.46-0.44c-0.11-0.23-0.12-0.47-0.03-0.71c0.09-0.26,0.3-0.45,0.57-0.52l0.25-0.14
					c0.35-0.15,0.72-0.25,1.17-0.32c0.68-0.09,1.12,0.03,1.47,0.34c0.17,0.13,0.3,0.32,0.39,0.58c0.02-0.01,0.04-0.02,0.06-0.03
					c0.59-0.32,1.21-0.47,1.88-0.47c0.9,0.02,1.68,0.44,2.44,1.24c0.67,0.7,1.06,1.21,1.22,1.58l0.17,0.39
					c0.09,0.24,0.08,0.46,0.01,0.68c-0.09,0.25-0.28,0.44-0.52,0.53c-0.2,0.08-0.44,0.08-0.66,0c-0.22-0.08-0.4-0.24-0.5-0.46
					l-0.17-0.43c-0.02-0.05-0.17-0.31-0.87-1.06c-0.41-0.43-0.77-0.65-1.07-0.66c-0.01,0-0.01,0-0.01,0c-0.43,0-0.75,0.08-1.04,0.25
					c-0.48,0.26-0.58,0.36-0.58,0.36l-0.09,0.14c-0.03,0.03-0.05,0.06-0.08,0.09c0.02,0.9,0.04,1.71,0.04,2.42
					c0,0.78,0.01,1.43,0.02,1.93c0,0.23,0,0.44,0,0.61c0.11-0.02,0.19-0.03,0.24-0.04l0.46-0.08c0.14,0,0.29,0.03,0.42,0.11
					c0.23,0.13,0.38,0.3,0.45,0.53c0.08,0.24,0.05,0.49-0.08,0.71c-0.11,0.21-0.31,0.37-0.55,0.43l-0.23,0.05
					c-0.11,0.03-0.41,0.09-1.64,0.23c-0.79,0.08-1.42,0.13-1.86,0.14h0L69.25,102.02z"/>
			</g>
			<g>
				<path class="st2" d="M78.37,93.54c-0.1-0.04-0.17-0.11-0.21-0.2c-0.05-0.09-0.05-0.19-0.01-0.29c0.04-0.11,0.11-0.17,0.21-0.2
					l0.36-0.18c0.28-0.12,0.62-0.21,1.01-0.27c0.46-0.06,0.81,0.01,1.05,0.22c0.21,0.17,0.33,0.51,0.36,1.03
					c0.12-0.09,0.35-0.23,0.69-0.43c0.53-0.28,1.09-0.42,1.7-0.4c0.66,0.02,1.32,0.37,1.97,1.08c0.62,0.64,0.99,1.12,1.12,1.43
					l0.18,0.4c0.03,0.09,0.02,0.19-0.01,0.29c-0.04,0.1-0.1,0.18-0.2,0.21c-0.1,0.04-0.2,0.04-0.29,0c-0.1-0.03-0.17-0.1-0.22-0.19
					l-0.16-0.4c-0.1-0.24-0.43-0.65-0.99-1.23c-0.51-0.54-0.98-0.81-1.43-0.83c-0.48-0.02-0.92,0.09-1.32,0.31
					c-0.41,0.22-0.64,0.38-0.72,0.47l-0.13,0.18c-0.04,0.06-0.11,0.09-0.18,0.11c0.03,1.02,0.04,1.92,0.04,2.71
					c0,0.79,0.01,1.44,0.02,1.94c0,0.52-0.01,0.88-0.02,1.07l-0.03,0.11c0.55-0.06,0.87-0.1,0.97-0.13l0.2-0.04
					c0.09-0.03,0.19-0.02,0.29,0.03c0.09,0.06,0.16,0.13,0.19,0.22c0.03,0.1,0.02,0.2-0.04,0.3c-0.05,0.09-0.13,0.16-0.24,0.19
					l-0.2,0.05c-0.16,0.04-0.69,0.12-1.59,0.22c-0.9,0.09-1.54,0.13-1.93,0.13c-0.03,0.02-0.06,0.02-0.1,0.02
					c-0.04,0-0.11,0-0.22,0.01c-0.11,0.01-0.2-0.01-0.24-0.04c-0.05-0.04-0.11-0.09-0.17-0.17c-0.06-0.08-0.05-0.18,0.02-0.31
					c0.05-0.17,0.11-0.27,0.18-0.32c0.08-0.04,0.14-0.05,0.2-0.02l0.07,0.04c0.24-0.03,0.54-0.06,0.9-0.09
					c0.31-0.03,0.58-0.09,0.8-0.18c0.1-0.05,0.16-0.08,0.18-0.11c0.01-0.17,0.02-0.49,0.02-0.96c-0.02-0.52-0.02-1.18-0.02-1.97
					c0-0.79-0.02-1.7-0.04-2.73c-0.02-0.77-0.06-1.27-0.14-1.48c-0.09-0.03-0.23-0.03-0.42,0c-0.32,0.05-0.58,0.11-0.81,0.2
					l-0.38,0.18C78.56,93.59,78.46,93.59,78.37,93.54z"/>
				<path class="st2" d="M78.45,102.02c-0.2,0-0.37-0.05-0.5-0.15c-0.1-0.07-0.19-0.16-0.27-0.27c-0.09-0.11-0.26-0.41-0.05-0.83
					c0.08-0.27,0.21-0.46,0.4-0.57c0.13-0.08,0.26-0.11,0.39-0.11l0.24,0.05c0.21-0.02,0.46-0.05,0.75-0.07
					c0.19-0.02,0.37-0.05,0.52-0.1c0-0.16,0.01-0.37,0.01-0.63c-0.02-0.51-0.02-1.17-0.02-1.97c0-0.79-0.02-1.69-0.04-2.71
					c-0.01-0.46-0.03-0.76-0.05-0.96c-0.24,0.04-0.44,0.09-0.6,0.16l-0.36,0.17c-0.19,0.1-0.48,0.12-0.73,0
					c-0.18-0.08-0.35-0.23-0.45-0.44c-0.11-0.22-0.12-0.46-0.04-0.71c0.1-0.27,0.3-0.45,0.57-0.53l0.26-0.14
					c0.35-0.15,0.72-0.25,1.16-0.32c0.68-0.09,1.12,0.03,1.48,0.34c0.17,0.13,0.3,0.32,0.39,0.57c0.02-0.01,0.04-0.02,0.05-0.03
					c0.59-0.32,1.22-0.47,1.88-0.47c0.9,0.02,1.69,0.44,2.43,1.24c0.65,0.68,1.05,1.2,1.22,1.58l0.18,0.4
					c0.08,0.25,0.08,0.45,0.01,0.66c-0.1,0.28-0.29,0.46-0.52,0.55c-0.21,0.08-0.45,0.08-0.66-0.01c-0.21-0.07-0.39-0.23-0.49-0.45
					l-0.17-0.43c-0.03-0.06-0.18-0.33-0.88-1.06c-0.4-0.42-0.77-0.65-1.07-0.66c-0.42-0.05-0.75,0.08-1.04,0.25
					c-0.48,0.26-0.58,0.36-0.59,0.36l-0.1,0.14c-0.02,0.03-0.04,0.06-0.07,0.08c0.02,0.9,0.04,1.71,0.04,2.42
					c0,0.78,0.01,1.43,0.02,1.93c0,0.23,0,0.43-0.01,0.61c0.12-0.02,0.2-0.03,0.24-0.04l0.46-0.08c0.14,0,0.28,0.03,0.42,0.1
					c0.23,0.13,0.37,0.31,0.45,0.52c0.08,0.27,0.05,0.51-0.08,0.72c-0.12,0.21-0.31,0.37-0.55,0.43l-0.23,0.05
					c-0.1,0.03-0.41,0.09-1.64,0.23c-0.79,0.08-1.43,0.13-1.86,0.14L78.45,102.02z"/>
			</g>
			<g>
				<path class="st2" d="M87.26,91.64c0-0.11,0.03-0.2,0.1-0.27c0.07-0.08,0.15-0.12,0.26-0.12c0.1-0.01,0.19,0.02,0.27,0.08
					l0.18,0.16c0.12,0.12,0.3,0.35,0.54,0.69l0.02-0.04c0.26-0.33,0.62-0.63,1.08-0.9c0.46-0.27,1.04-0.45,1.75-0.53
					c0.73-0.1,1.45,0,2.17,0.32c0.72,0.31,1.32,0.79,1.82,1.43c0.46,0.61,0.86,1.39,1.19,2.35c0.31,0.95,0.54,1.87,0.67,2.75
					c0.02,0.19,0.04,0.39,0.07,0.58c0.07,0.55,0.13,1.08,0.18,1.61c0.06,0.4,0.1,0.83,0.14,1.26c0,0.14,0.01,0.28,0.02,0.43
					c0.02,0.16,0.02,0.27,0.02,0.33c0,0.07,0,0.14-0.01,0.23c-0.01,0.08-0.03,0.16-0.06,0.24c-0.01,0.13-0.08,0.23-0.2,0.29
					l-0.58,0.29c-0.42,0.22-1,0.4-1.77,0.52c-0.76,0.13-1.57,0.12-2.42-0.03c-0.86-0.15-1.61-0.45-2.23-0.89
					c-0.63-0.46-1.1-1.05-1.41-1.77c-0.32-0.73-0.34-1.49-0.07-2.3c0.27-0.78,0.73-1.48,1.39-2.13c0.68-0.66,1.57-1.04,2.66-1.14
					c1.12-0.09,2.02,0.21,2.71,0.9c0.24,0.22,0.45,0.46,0.62,0.71c-0.12-0.52-0.27-1.07-0.45-1.63c-0.3-0.88-0.66-1.6-1.07-2.15
					c-0.4-0.52-0.9-0.91-1.5-1.16c-0.59-0.27-1.19-0.36-1.79-0.29c-0.6,0.07-1.08,0.21-1.46,0.43c-0.37,0.22-0.65,0.46-0.83,0.73
					l-0.17,0.22c0.09,0.12,0.17,0.23,0.25,0.32l0.27,0.31c0.08,0.08,0.11,0.17,0.1,0.27c-0.01,0.11-0.05,0.19-0.14,0.26
					c-0.08,0.07-0.17,0.1-0.27,0.09c-0.11-0.01-0.19-0.05-0.24-0.13l-0.3-0.31c-0.19-0.21-0.43-0.51-0.69-0.92
					c-0.24-0.36-0.41-0.58-0.49-0.67l-0.16-0.13C87.31,91.84,87.26,91.74,87.26,91.64z M96.77,99.83c-0.08-0.48-0.18-0.92-0.34-1.34
					c-0.25-0.76-0.67-1.43-1.25-1.99c-0.53-0.52-1.23-0.75-2.11-0.67c-0.91,0.09-1.64,0.4-2.19,0.91c-0.58,0.57-0.98,1.18-1.19,1.83
					c-0.21,0.63-0.19,1.22,0.05,1.77c0.24,0.58,0.62,1.06,1.14,1.43c0.54,0.39,1.18,0.65,1.92,0.78c0.76,0.12,1.48,0.12,2.16,0.01
					c0.68-0.11,1.2-0.26,1.55-0.43l0.41-0.2c0-0.03,0-0.07,0-0.11c-0.02-0.4-0.06-0.98-0.14-1.75
					C96.79,99.98,96.79,99.9,96.77,99.83z"/>
				<path class="st2" d="M94.01,103.94c-0.46,0-0.94-0.04-1.43-0.13c-0.93-0.16-1.76-0.49-2.45-0.98c-0.71-0.52-1.24-1.18-1.59-1.98
					c-0.37-0.85-0.4-1.75-0.09-2.67c0.29-0.85,0.81-1.64,1.52-2.34c0.77-0.74,1.77-1.17,2.98-1.29c0.96-0.08,1.7,0.08,2.36,0.46
					c-0.26-0.72-0.57-1.33-0.92-1.8c-0.35-0.45-0.77-0.78-1.29-0.99c-0.51-0.23-1.01-0.31-1.52-0.25c-0.52,0.06-0.94,0.18-1.26,0.36
					c-0.27,0.16-0.47,0.32-0.6,0.5l0.25,0.29c0.16,0.16,0.24,0.4,0.23,0.65c-0.02,0.26-0.14,0.48-0.33,0.63
					c-0.16,0.13-0.36,0.21-0.58,0.21c-0.39-0.04-0.58-0.2-0.68-0.33l-0.26-0.27c-0.22-0.23-0.47-0.57-0.75-0.99
					c-0.21-0.31-0.35-0.51-0.42-0.59l-0.13-0.11c-0.2-0.17-0.32-0.41-0.32-0.67c0-0.25,0.09-0.47,0.26-0.64
					c0.14-0.16,0.35-0.26,0.59-0.28c0.26-0.01,0.47,0.06,0.63,0.19l0.2,0.17c0.07,0.07,0.14,0.15,0.23,0.26
					c0.23-0.2,0.49-0.4,0.79-0.57c0.52-0.31,1.18-0.51,1.96-0.6c0.77-0.11,1.65,0.01,2.44,0.36c0.79,0.34,1.47,0.88,2.02,1.59
					c0.5,0.66,0.92,1.5,1.27,2.5c0.32,0.97,0.55,1.92,0.69,2.84c0.02,0.22,0.04,0.4,0.07,0.58c0.08,0.57,0.14,1.11,0.18,1.64
					c0.06,0.38,0.1,0.81,0.14,1.26c0,0.16,0.01,0.29,0.02,0.43c0.02,0.17,0.02,0.3,0.02,0.38c0,0.09,0,0.18-0.01,0.28
					c-0.01,0.11-0.04,0.22-0.07,0.32c-0.05,0.27-0.22,0.5-0.48,0.63l-0.58,0.29c-0.47,0.25-1.1,0.43-1.92,0.57
					C94.8,103.9,94.41,103.94,94.01,103.94z M93.41,96.33c-0.09,0-0.18,0.01-0.28,0.01c-0.78,0.08-1.41,0.34-1.88,0.78
					c-0.52,0.51-0.87,1.04-1.05,1.61c-0.17,0.51-0.16,0.97,0.03,1.4c0.21,0.5,0.52,0.9,0.96,1.21c0.48,0.35,1.05,0.58,1.71,0.7
					c0.36,0.06,0.71,0.09,1.05,0.09l0,0c0.32,0,0.63-0.03,0.93-0.08c0.77-0.12,1.19-0.28,1.41-0.39l0.1-0.05
					c-0.02-0.41-0.06-0.9-0.12-1.49c0-0.1-0.01-0.15-0.01-0.19c-0.08-0.49-0.18-0.9-0.32-1.27c-0.23-0.69-0.6-1.29-1.12-1.8
					C94.46,96.51,93.99,96.33,93.41,96.33z"/>
			</g>
			<g>
				<path class="st2" d="M106.62,89.81c0.09-0.06,0.14-0.09,0.14-0.09s0.05,0.01,0.16,0.03c0.1,0.02,0.18,0.08,0.23,0.17
					c0.05,0.09,0.07,0.19,0.06,0.29l-0.05,0.2c-0.03,0.13-0.09,0.39-0.18,0.78c-0.08,0.4-0.14,0.73-0.18,0.98
					c-0.06,0.29-0.22,0.45-0.47,0.49c-0.25,0.05-0.47,0-0.65-0.13c-0.28-0.16-0.84-0.43-1.66-0.81c-0.78-0.35-1.48-0.53-2.1-0.51
					c-0.61,0.02-1.14,0.17-1.59,0.47c-0.37,0.26-0.54,0.54-0.51,0.85c0.06,0.41,0.25,0.82,0.57,1.21c0.32,0.4,0.78,0.68,1.38,0.86
					c0.62,0.19,1.26,0.33,1.9,0.42c0.72,0.09,1.32,0.24,1.82,0.47c0.54,0.24,0.95,0.6,1.25,1.08c0.31,0.48,0.44,1.04,0.38,1.7
					c-0.06,0.65-0.31,1.22-0.76,1.7c-0.42,0.43-0.88,0.77-1.41,1.01c-0.53,0.22-1.11,0.34-1.74,0.36c-0.62,0.02-1.22-0.06-1.79-0.22
					c-0.6-0.17-1.11-0.43-1.55-0.81c-0.37-0.34-0.67-0.7-0.92-1.05c0,0.1,0,0.19,0,0.27c-0.02,0.13-0.02,0.25-0.02,0.34v0.15
					c0,0.09-0.04,0.17-0.11,0.26c-0.08,0.08-0.16,0.12-0.27,0.12c-0.1,0-0.19-0.04-0.27-0.12c-0.07-0.09-0.11-0.17-0.11-0.26v-0.15
					c0-0.1,0.01-0.24,0.02-0.41c0.01-0.15,0.02-0.37,0.02-0.67c0-0.31,0.01-0.59,0.02-0.83c0-0.05,0-0.1,0.01-0.16
					c0.01-0.05,0.06-0.13,0.15-0.22c0.09-0.09,0.22-0.12,0.38-0.09c0.09,0.03,0.16,0.07,0.22,0.11c0.05,0.05,0.09,0.09,0.1,0.12
					c0.01,0.04,0.04,0.12,0.06,0.23c0.07,0.22,0.21,0.5,0.4,0.83c0.19,0.32,0.47,0.63,0.82,0.94c0.33,0.31,0.74,0.53,1.23,0.65
					c0.49,0.15,1.02,0.22,1.57,0.2c0.54-0.02,1.02-0.12,1.45-0.3c0.44-0.19,0.83-0.47,1.19-0.84c0.31-0.33,0.49-0.73,0.54-1.22
					c0.04-0.49-0.04-0.9-0.24-1.24c-0.22-0.35-0.54-0.61-0.94-0.78c-0.43-0.2-0.96-0.33-1.59-0.4c-0.68-0.1-1.37-0.26-2.06-0.47
					c-0.72-0.22-1.29-0.59-1.71-1.1c-0.43-0.5-0.67-1.04-0.73-1.58c-0.09-0.64,0.19-1.17,0.83-1.59c0.57-0.37,1.23-0.57,1.99-0.6
					c0.73-0.02,1.54,0.18,2.44,0.58c0.84,0.37,1.41,0.66,1.74,0.85c0.05-0.24,0.1-0.51,0.16-0.83c0.07-0.4,0.13-0.67,0.15-0.81
					l0.07-0.2C106.48,89.95,106.53,89.87,106.62,89.81z"/>
				<path class="st2" d="M103.02,101.87c-0.61,0-1.2-0.08-1.76-0.24c-0.67-0.19-1.25-0.49-1.74-0.91c-0.08-0.07-0.15-0.14-0.22-0.21
					c-0.03,0.04-0.06,0.09-0.1,0.13c-0.36,0.39-0.95,0.39-1.31,0.01c-0.18-0.21-0.26-0.41-0.26-0.62v-0.15
					c0-0.12,0.01-0.27,0.03-0.46c0.01-0.14,0.02-0.34,0.02-0.62c0-0.32,0.01-0.61,0.03-0.86c0-0.03,0-0.11,0.01-0.2
					c0.03-0.17,0.12-0.34,0.29-0.52c0.17-0.17,0.39-0.26,0.64-0.26l0.2,0.02c0.23,0.07,0.35,0.14,0.46,0.22
					c0.13,0.11,0.21,0.22,0.25,0.34c0.02,0.04,0.04,0.13,0.08,0.26c0.06,0.19,0.18,0.43,0.36,0.73c0.16,0.26,0.4,0.53,0.72,0.81
					c0.28,0.27,0.61,0.44,1.01,0.54c0.42,0.13,0.84,0.19,1.28,0.19l0.15,0c0.47-0.01,0.9-0.1,1.27-0.26c0.37-0.16,0.7-0.4,1.01-0.72
					c0.23-0.24,0.36-0.53,0.39-0.9c0.03-0.38-0.02-0.68-0.17-0.92c-0.16-0.25-0.39-0.44-0.7-0.57c-0.38-0.17-0.86-0.29-1.44-0.36
					c-0.73-0.11-1.44-0.27-2.15-0.49c-0.81-0.25-1.47-0.68-1.96-1.26c-0.49-0.59-0.78-1.21-0.84-1.87
					c-0.08-0.57,0.04-1.41,1.06-2.08c0.64-0.42,1.4-0.65,2.25-0.69c0,0,0.01,0,0.01,0c0.88,0,1.74,0.21,2.67,0.63
					c0.45,0.2,0.83,0.38,1.15,0.53l0.27-1.22c0.01-0.15,0.15-0.37,0.37-0.51l0.34-0.22l0.35,0.09c0.25,0.06,0.45,0.21,0.58,0.42
					c0.1,0.18,0.15,0.39,0.12,0.61l-0.23,1.03c-0.07,0.38-0.13,0.71-0.18,0.96c-0.1,0.5-0.43,0.83-0.89,0.92
					c-0.41,0.07-0.76-0.01-1.05-0.23c-0.21-0.12-0.74-0.37-1.56-0.75c-0.68-0.31-1.29-0.47-1.81-0.47
					c-0.58,0.02-1.01,0.14-1.37,0.38c-0.2,0.13-0.29,0.26-0.28,0.37c0.04,0.3,0.2,0.62,0.45,0.93c0.26,0.32,0.62,0.54,1.12,0.69
					c0.59,0.18,1.2,0.32,1.83,0.41c0.75,0.09,1.41,0.26,1.95,0.51c0.63,0.28,1.13,0.71,1.48,1.28c0.37,0.57,0.53,1.25,0.46,2.02
					c-0.07,0.78-0.38,1.45-0.9,2.01c-0.48,0.49-0.99,0.86-1.58,1.12c-0.61,0.25-1.26,0.39-1.95,0.4L103.02,101.87z"/>
			</g>
		</g>
		<path class="st2" d="M84.56,13.8c0,0.41-0.33,0.73-0.73,0.73c-0.41,0-0.74-0.32-0.74-0.73c0-0.41,0.33-0.74,0.74-0.74
			C84.23,13.06,84.56,13.4,84.56,13.8z"/>
		<g>
			<g>
				<polyline class="st2" points="86.4,15.83 86.89,15.82 87.34,16.19 86.57,16.21 				"/>
				<polygon class="st2" points="86.58,16.35 86.57,16.09 86.98,16.07 86.84,15.95 86.4,15.96 86.4,15.7 86.94,15.69 87.69,16.31 
									"/>
			</g>
			<g>
				<path class="st2" d="M86.4,15.83c0,0-1.95-0.19-3.19,1.05c0,0-0.47-1.1-2.05-1.06c0,0-1.84,0.01-2.92,1.24
					c0,0,0.98,1.29,3.13,1.16c0,0-1.16,1.29-1.63,1.99c0,0-1.05-0.6-2.24,0c0,0-1.08,0.95-1.08,1.45c0,0,1.81,0.9,2.71-0.16
					c0,0,0.26,0,0.22,0.13c0,0-1.58,1.65-0.95,3.62c0,0,0.37,0.79,0.79,1.16c0,0,1.76-1.55-0.16-3.89c0,0,0.21-0.6,0.52-0.79
					c0,0,0.4-1.31,0.87-1.71c0,0-0.37,2,1.21,3.32c0,0,1.92-2.08-0.37-4.34c0,0,1.03-1.42,2.61-2c0,0-1.08,1.99,0.45,4.11
					c0,0,2.08-0.33,1.02-4.59l-0.11-0.18l1.53-0.15L86.4,15.83z"/>
				<path class="st2" d="M79.19,26.6l-0.09-0.08c-0.44-0.39-0.81-1.17-0.82-1.2c-0.53-1.64,0.37-3.04,0.79-3.56
					c-0.3,0.26-0.69,0.38-1.17,0.38c-0.78,0-1.51-0.35-1.54-0.37l-0.08-0.03v-0.08c0-0.54,1.01-1.45,1.12-1.55l0.03-0.01
					c0.37-0.19,0.76-0.29,1.16-0.29c0.51,0,0.9,0.15,1.09,0.23c0.37-0.53,1.04-1.31,1.38-1.68h-0.01c-1.99,0-2.89-1.17-2.93-1.22
					l-0.06-0.09l0.07-0.08c1.1-1.26,2.94-1.29,3.02-1.29l0.07,0c1.24,0,1.81,0.67,2.01,0.98c0.98-0.88,2.32-0.98,2.87-0.98
					c0.18,0,0.29,0.01,0.29,0.01l0.05,0l0.6,0.6l-1.6,0.16l0.02,0.04c0.45,1.83,0.4,3.19-0.17,4.03c-0.41,0.62-0.95,0.71-0.97,0.71
					l-0.08,0.01l-0.05-0.06c-1.21-1.67-0.82-3.29-0.59-3.94c-1.14,0.52-1.95,1.45-2.17,1.75c2.22,2.29,0.31,4.41,0.28,4.44
					l-0.08,0.09l-0.09-0.08c-1.19-0.98-1.32-2.31-1.3-3c-0.26,0.42-0.49,1.06-0.57,1.33l-0.02,0.05l-0.04,0.02
					c-0.2,0.12-0.37,0.46-0.44,0.65c1.9,2.38,0.11,4,0.09,4.02L79.19,26.6z M78.53,25.22c0,0,0.3,0.65,0.66,1.02
					c0.32-0.35,1.33-1.69-0.26-3.62l-0.05-0.06l0.02-0.07C78.54,23.14,78.18,24.14,78.53,25.22L78.53,25.22z M80.62,19.7l-0.06,0.36
					c0,0.02-0.31,1.86,1.07,3.1c0.33-0.43,1.47-2.16-0.45-4.06l-0.08-0.08l0.07-0.09c0.04-0.06,1.07-1.46,2.66-2.04l0.33-0.12
					l-0.17,0.31c-0.01,0.02-0.99,1.9,0.39,3.9c0.14-0.05,0.46-0.18,0.72-0.59c0.36-0.53,0.66-1.63,0.13-3.8l-0.2-0.34l1.45-0.15
					l-0.13-0.14c-0.05,0-0.12,0-0.22,0c-0.54,0-1.89,0.1-2.82,1.03l-0.13,0.14l-0.08-0.18c-0.02-0.03-0.45-0.98-1.86-0.98l-0.07,0
					c-0.02,0-1.71,0.03-2.75,1.12c0.26,0.28,1.2,1.13,2.95,1.02l0.32-0.02l-0.22,0.24c-0.01,0.02-1.16,1.29-1.62,1.99l-0.07,0.1
					l-0.11-0.06c0,0-0.45-0.25-1.06-0.25c-0.36,0-0.7,0.08-1.03,0.24c-0.37,0.33-0.93,0.92-1.01,1.26c0.21,0.08,0.77,0.3,1.34,0.3
					c0.49,0,0.87-0.16,1.12-0.46l0.04-0.05h0.06c0.07,0.01,0.24,0.02,0.32,0.13c0.01,0.02,0.02,0.03,0.02,0.05
					c0.12-0.37,0.45-1.28,0.86-1.62L80.62,19.7z"/>
			</g>
		</g>
	</g>
</g>
</svg>
